<svg width="24" height="24" viewBox="0 0 24 24" fill="none" xmlns="http://www.w3.org/2000/svg">
<rect width="24" height="24" rx="4" fill="#EDEDED"/>
<path d="M12.1064 11.7467C12.0864 11.7467 12.0731 11.7467 12.0531 11.7467C12.0197 11.74 11.9731 11.74 11.9331 11.7467C9.99973 11.6867 8.53973 10.1667 8.53973 8.29334C8.53973 6.38668 10.0931 4.83334 11.9997 4.83334C13.9064 4.83334 15.4597 6.38668 15.4597 8.29334C15.4531 10.1667 13.9864 11.6867 12.1264 11.7467C12.1197 11.7467 12.1131 11.7467 12.1064 11.7467ZM11.9997 5.83334C10.6464 5.83334 9.53973 6.94001 9.53973 8.29334C9.53973 9.62668 10.5797 10.7 11.9064 10.7467C11.9397 10.74 12.0331 10.74 12.1197 10.7467C13.4264 10.6867 14.4531 9.61334 14.4597 8.29334C14.4597 6.94001 13.3531 5.83334 11.9997 5.83334Z" fill="#34383D"/>
<path d="M12.1131 19.0333C10.8064 19.0333 9.49307 18.7 8.49974 18.0333C7.57307 17.42 7.06641 16.58 7.06641 15.6667C7.06641 14.7533 7.57307 13.9067 8.49974 13.2867C10.4997 11.96 13.7397 11.96 15.7264 13.2867C16.6464 13.9 17.1597 14.74 17.1597 15.6533C17.1597 16.5667 16.6531 17.4133 15.7264 18.0333C14.7264 18.7 13.4197 19.0333 12.1131 19.0333ZM9.05307 14.1267C8.41307 14.5533 8.06641 15.1 8.06641 15.6733C8.06641 16.24 8.41974 16.7867 9.05307 17.2067C10.7131 18.32 13.5131 18.32 15.1731 17.2067C15.8131 16.78 16.1597 16.2333 16.1597 15.66C16.1597 15.0933 15.8064 14.5467 15.1731 14.1267C13.5131 13.02 10.7131 13.02 9.05307 14.1267Z" fill="#34383D"/>
</svg>
