<svg width="24" height="24" viewBox="0 0 24 24" fill="none" xmlns="http://www.w3.org/2000/svg">
<rect width="24" height="24" rx="4" fill="#EDEDED"/>
<path d="M16.24 19.1667H7.72666C6.71333 19.1667 5.78666 18.6533 5.25333 17.7867C4.71999 16.92 4.67333 15.8667 5.12666 14.9533L6.27333 12.6533C6.64666 11.9067 7.24666 11.44 7.91999 11.3667C8.59333 11.2933 9.27999 11.6267 9.79999 12.2733L9.94666 12.46C10.24 12.82 10.58 13.0133 10.9133 12.98C11.2467 12.9533 11.5533 12.7133 11.78 12.3067L13.04 10.0333C13.56 9.09334 14.2533 8.60667 15.0067 8.64C15.7533 8.68 16.3933 9.24 16.82 10.2267L18.9067 15.1C19.2933 16 19.2 17.0267 18.66 17.8467C18.1267 18.68 17.22 19.1667 16.24 19.1667ZM8.10666 12.3667C8.07999 12.3667 8.05333 12.3667 8.02666 12.3733C7.69333 12.4067 7.38666 12.6733 7.16666 13.1067L6.01999 15.4067C5.71999 16 5.75333 16.7 6.09999 17.2667C6.44666 17.8333 7.05999 18.1733 7.72666 18.1733H16.2333C16.8867 18.1733 17.4667 17.86 17.8267 17.3133C18.1867 16.7667 18.2467 16.1133 17.9867 15.5133L15.9 10.64C15.6467 10.04 15.2933 9.67334 14.9533 9.66C14.64 9.64 14.2333 9.97334 13.9133 10.54L12.6533 12.8133C12.2667 13.5067 11.66 13.94 11 14C10.34 14.0533 9.66666 13.7333 9.16666 13.1067L9.01999 12.92C8.73999 12.5533 8.41999 12.3667 8.10666 12.3667Z" fill="#34383D"/>
<path d="M8.64667 9.83334C7.27333 9.83334 6.14667 8.71334 6.14667 7.33334C6.14667 5.95334 7.26667 4.83334 8.64667 4.83334C10.0267 4.83334 11.1467 5.95334 11.1467 7.33334C11.1467 8.71334 10.0267 9.83334 8.64667 9.83334ZM8.64667 5.83334C7.82 5.83334 7.14667 6.50668 7.14667 7.33334C7.14667 8.16001 7.82 8.83334 8.64667 8.83334C9.47333 8.83334 10.1467 8.16001 10.1467 7.33334C10.1467 6.50668 9.47333 5.83334 8.64667 5.83334Z" fill="#34383D"/>
</svg>
