<svg width="529" height="235" viewBox="0 0 529 235" fill="none" xmlns="http://www.w3.org/2000/svg">
<path d="M290 122.942C334.423 106.662 383.369 86.1913 437.999 59.5M218 147C155.891 165.985 102.508 177.872 54.5693 190" stroke="#FFCD17"/>
<path d="M218 113.398V144.602C218 147.737 219.7 150.624 222.427 152.209L249.591 167.811C252.318 169.396 255.682 169.396 258.409 167.811L285.573 152.209C288.3 150.624 290 147.737 290 144.602V113.398C290 110.263 288.335 107.376 285.573 105.791L258.409 90.1886C255.682 88.6038 252.318 88.6038 249.591 90.1886L222.427 105.791C219.7 107.34 218 110.263 218 113.398Z" stroke="#FFCD17" stroke-width="0.75" stroke-miterlimit="10" stroke-linecap="round" stroke-linejoin="round"/>
<path d="M222.8 115.271V142.731C222.8 145.489 224.292 148.03 226.686 149.425L250.529 163.155C252.923 164.549 255.876 164.549 258.27 163.155L282.114 149.425C284.508 148.03 286 145.489 286 142.731V115.271C286 112.513 284.539 109.971 282.114 108.577L258.27 94.8468C255.876 93.4521 252.923 93.4521 250.529 94.8468L226.686 108.577C224.292 109.94 222.8 112.513 222.8 115.271Z" fill="url(#paint0_linear_4718_71667)"/>
<g clip-path="url(#clip0_4718_71667)">
<path d="M238.489 133.164H242.044C242.535 133.164 242.933 133.562 242.933 134.053V142.942C242.933 143.433 242.535 143.831 242.044 143.831H238.489C237.998 143.831 237.6 143.433 237.6 142.942V134.053C237.6 133.562 237.998 133.164 238.489 133.164Z" fill="white"/>
<path d="M247.377 126.053H250.933C251.424 126.053 251.822 126.451 251.822 126.942V142.942C251.822 143.433 251.424 143.831 250.933 143.831H247.377C246.886 143.831 246.488 143.433 246.488 142.942V126.942C246.488 126.451 246.886 126.053 247.377 126.053Z" fill="white"/>
<path d="M256.266 129.607H259.822C260.312 129.607 260.71 130.006 260.71 130.496V142.941C260.71 143.432 260.312 143.83 259.822 143.83H256.266C255.775 143.83 255.377 143.432 255.377 142.941V130.496C255.377 130.006 255.775 129.607 256.266 129.607Z" fill="white"/>
<path d="M265.156 124.275H268.711C269.202 124.275 269.6 124.674 269.6 125.164V142.942C269.6 143.433 269.202 143.831 268.711 143.831H265.156C264.665 143.831 264.267 143.433 264.267 142.942V125.164C264.267 124.674 264.665 124.275 265.156 124.275Z" fill="white"/>
<path d="M266.933 113.607C265.461 113.609 264.268 114.802 264.266 116.274C264.27 116.564 264.321 116.852 264.419 117.126L259.969 119.771C259.385 119.151 258.538 118.851 257.694 118.964C256.85 119.077 256.113 119.59 255.712 120.341L251.787 118.397C251.806 118.283 251.818 118.167 251.822 118.052C251.824 116.972 251.175 115.998 250.178 115.584C249.182 115.17 248.034 115.397 247.27 116.16C246.507 116.924 246.278 118.071 246.692 119.068L241.601 122.868C241.197 122.627 240.736 122.499 240.266 122.496C238.794 122.496 237.6 123.69 237.6 125.163C237.6 126.636 238.794 127.83 240.266 127.83C241.739 127.83 242.933 126.636 242.933 125.163C242.931 124.842 242.87 124.525 242.754 124.226L247.896 120.388C248.902 120.949 250.157 120.785 250.984 119.983L255.447 122.194C255.744 123.519 256.992 124.408 258.341 124.258C259.691 124.107 260.712 122.966 260.711 121.607C260.711 121.54 260.696 121.476 260.691 121.41L265.531 118.532C265.95 118.798 266.436 118.939 266.933 118.941C268.406 118.941 269.6 117.747 269.6 116.274C269.6 114.801 268.406 113.607 266.933 113.607Z" fill="white"/>
</g>
<path d="M438 31.4975V70.5025C438 74.4206 440.125 78.0306 443.534 80.0117L477.488 99.5142C480.897 101.495 485.103 101.495 488.512 99.5142L522.466 80.0117C525.875 78.0306 528 74.4206 528 70.5025V31.4975C528 27.5794 525.919 23.9694 522.466 21.9883L488.512 2.4858C485.103 0.504733 480.897 0.504733 477.488 2.4858L443.534 21.9883C440.125 23.9254 438 27.5794 438 31.4975Z" stroke="#FFCD17" stroke-width="0.75" stroke-miterlimit="10" stroke-linecap="round" stroke-linejoin="round"/>
<path d="M444.001 33.8397V68.1642C444.001 71.6121 445.866 74.7889 448.858 76.5322L478.663 93.6945C481.655 95.4378 485.347 95.4378 488.339 93.6945L518.144 76.5322C521.136 74.7889 523.001 71.6121 523.001 68.1642V33.8397C523.001 30.3918 521.175 27.215 518.144 25.4717L488.339 8.30946C485.347 6.56612 481.655 6.56612 478.663 8.30946L448.858 25.4717C445.866 27.1763 444.001 30.3918 444.001 33.8397Z" fill="url(#paint1_linear_4718_71667)"/>
<g clip-path="url(#clip1_4718_71667)">
<path d="M477.812 70.6152C481.268 70.6152 483.944 70.2844 486.091 69.6082C486.045 69.364 486.015 69.1144 486.015 68.8574C486.015 67.7094 486.492 66.673 487.255 65.9277C486.492 65.1825 486.015 64.1461 486.015 62.998C486.015 61.85 486.492 60.8136 487.255 60.0684C486.492 59.3231 486.015 58.2867 486.015 57.1387C486.015 55.9906 486.492 54.9542 487.255 54.209C486.492 53.4637 486.015 52.4274 486.015 51.2793C486.015 49.9231 486.684 48.7277 487.702 47.9807C487.005 47.3425 486.26 46.7706 485.479 46.2674C485.796 45.8676 486.015 45.3839 486.015 44.834C486.015 43.5394 484.965 42.4902 483.671 42.4902H471.952C470.658 42.4902 469.608 43.5394 469.608 44.834C469.608 45.3827 469.826 45.8649 470.142 46.264C465.592 49.1949 462.499 54.5023 462.499 60.0684C462.499 69.5224 471.271 70.6152 477.812 70.6152ZM477.799 59.2398C475.86 59.2398 474.283 57.663 474.283 55.7242C474.283 54.1937 475.272 52.9025 476.64 52.4207V50.6934C476.64 50.0458 477.164 49.5215 477.812 49.5215C478.459 49.5215 478.983 50.0458 478.983 50.6934V52.4286C480.338 52.9172 481.315 54.2032 481.315 55.7242C481.315 56.3721 480.79 56.8961 480.143 56.8961C479.495 56.8961 478.971 56.3721 478.971 55.7242C478.971 55.0775 478.445 54.5523 477.799 54.5523C477.152 54.5523 476.627 55.0775 476.627 55.7242C476.627 56.3708 477.152 56.8961 477.799 56.8961C479.737 56.8961 481.315 58.4732 481.315 60.4117C481.315 61.9327 480.338 63.2187 478.983 63.7076V64.7559C478.983 65.4034 478.459 65.9277 477.812 65.9277C477.164 65.9277 476.64 65.4034 476.64 64.7559V63.7152C475.272 63.2336 474.283 61.9421 474.283 60.4117C474.283 59.7641 474.807 59.2398 475.455 59.2398C476.103 59.2398 476.627 59.7641 476.627 60.4117C476.627 61.0583 477.152 61.5836 477.799 61.5836C478.445 61.5836 478.971 61.0583 478.971 60.4117C478.971 59.765 478.445 59.2398 477.799 59.2398Z" fill="white"/>
<path d="M500.741 67.0996H490.116C489.145 67.0996 488.358 67.8867 488.358 68.8574C488.358 69.8282 489.145 70.6152 490.116 70.6152H500.741C501.712 70.6152 502.499 69.8282 502.499 68.8574C502.499 67.8867 501.712 67.0996 500.741 67.0996Z" fill="white"/>
<path d="M500.741 61.2402H490.116C489.145 61.2402 488.358 62.0273 488.358 62.998C488.358 63.9688 489.145 64.7559 490.116 64.7559H500.741C501.712 64.7559 502.499 63.9688 502.499 62.998C502.499 62.0273 501.712 61.2402 500.741 61.2402Z" fill="white"/>
<path d="M500.741 55.3809H490.116C489.145 55.3809 488.358 56.1679 488.358 57.1387C488.358 58.1094 489.145 58.8965 490.116 58.8965H500.741C501.712 58.8965 502.499 58.1094 502.499 57.1387C502.499 56.1679 501.712 55.3809 500.741 55.3809Z" fill="white"/>
<path d="M500.741 49.5215H490.116C489.145 49.5215 488.358 50.3085 488.358 51.2793C488.358 52.2501 489.145 53.0371 490.116 53.0371H500.741C501.712 53.0371 502.499 52.2501 502.499 51.2793C502.499 50.3085 501.712 49.5215 500.741 49.5215Z" fill="white"/>
<path d="M481.111 32.959C480.626 31.5979 479.337 30.6152 477.812 30.6152C476.284 30.6152 474.98 31.5948 474.496 32.959H470.78C470.404 32.959 470.05 33.1396 469.829 33.4454C469.61 33.7509 469.549 34.1446 469.669 34.5016L471.499 40.1465H484.125L485.954 34.5016C486.074 34.1446 486.013 33.7509 485.794 33.4454C485.573 33.1396 485.219 32.959 484.843 32.959H481.111Z" fill="white"/>
</g>
<path d="M1 192.298V215.702C1 218.052 2.27496 220.218 4.32022 221.407L24.6931 233.109C26.7383 234.297 29.2617 234.297 31.3069 233.109L51.6798 221.407C53.725 220.218 55 218.052 55 215.702V192.298C55 189.948 53.7516 187.782 51.6798 186.593L31.3069 174.891C29.2617 173.703 26.7383 173.703 24.6931 174.891L4.32022 186.593C2.27496 187.755 1 189.948 1 192.298Z" stroke="#FFCD17" stroke-width="0.75" stroke-miterlimit="10" stroke-linecap="round" stroke-linejoin="round"/>
<path d="M4.59961 193.702V214.297C4.59961 216.366 5.71874 218.272 7.51402 219.318L25.3969 229.615C27.1921 230.661 29.4071 230.661 31.2024 229.615L49.0852 219.318C50.8805 218.272 51.9996 216.366 51.9996 214.297V193.702C51.9996 191.634 50.9038 189.727 49.0852 188.681L31.2024 178.384C29.4071 177.338 27.1921 177.338 25.3969 178.384L7.51402 188.681C5.71874 189.704 4.59961 191.634 4.59961 193.702Z" fill="url(#paint2_linear_4718_71667)"/>
<g clip-path="url(#clip2_4718_71667)">
<path d="M24.8877 201.658H30.5127C30.9014 201.658 31.2158 201.344 31.2158 200.955C31.2158 200.567 30.9014 200.252 30.5127 200.252H24.8877C24.4991 200.252 24.1846 200.567 24.1846 200.955C24.1846 201.344 24.4991 201.658 24.8877 201.658Z" fill="white"/>
<path d="M24.8877 204.471H30.5127C30.9014 204.471 31.2158 204.156 31.2158 203.768C31.2158 203.379 30.9014 203.064 30.5127 203.064H24.8877C24.4991 203.064 24.1846 203.379 24.1846 203.768C24.1846 204.156 24.4991 204.471 24.8877 204.471Z" fill="white"/>
<path d="M24.8877 207.283H30.5127C30.9014 207.283 31.2158 206.969 31.2158 206.58C31.2158 206.192 30.9014 205.877 30.5127 205.877H24.8877C24.4991 205.877 24.1846 206.192 24.1846 206.58C24.1846 206.969 24.4991 207.283 24.8877 207.283Z" fill="white"/>
<path d="M31.2646 196.931C33.1261 197.904 34.5494 199.6 35.1346 201.659H34.0281C33.7684 201.659 33.5302 201.802 33.4079 202.03C33.2858 202.259 33.2995 202.536 33.4431 202.752C33.5256 202.895 36.0638 207.266 35.904 206.99C36.1649 207.382 36.8131 207.382 37.074 206.99C37.3421 206.529 39.674 202.594 39.582 202.752C39.7256 202.536 39.7391 202.259 39.617 202.03C39.4949 201.802 39.2565 201.659 38.997 201.659H38.0352C37.3937 198.5 35.3272 195.877 32.5484 194.434C32.5947 194.61 32.6211 194.792 32.6211 194.979C32.6226 196.484 31.4058 196.837 31.2646 196.931Z" fill="white"/>
<path d="M26.6838 191.885C26.4681 191.742 26.1907 191.728 25.9622 191.85C25.7335 191.973 25.5906 192.211 25.5906 192.471V193.432C21.7787 194.206 18.7214 197.039 17.6104 200.717C17.9861 200.42 18.4321 200.253 18.9109 200.253C19.5412 200.253 20.1147 200.531 20.5073 200.989C21.3779 198.744 23.2509 196.998 25.5906 196.333V197.439C25.5906 197.699 25.7335 197.937 25.9622 198.06C26.1909 198.182 26.4683 198.168 26.6838 198.025C26.8262 197.942 31.1975 195.404 30.9221 195.564C31.3136 195.303 31.3136 194.654 30.9221 194.393C30.4607 194.126 26.5254 191.794 26.6838 191.885Z" fill="white"/>
<path d="M15.7831 206.912C15.9054 207.14 16.1436 207.283 16.4033 207.283H17.7661C18.661 209.81 20.5012 211.871 22.849 213.095C22.8037 212.921 22.779 212.741 22.779 212.557C22.7776 211.059 23.9846 210.704 24.1254 210.61C22.71 209.869 21.55 208.707 20.8196 207.283H21.372C21.6317 207.283 21.8699 207.14 21.9922 206.912C22.1143 206.683 22.1006 206.406 21.9571 206.19C21.8745 206.048 19.3363 201.676 19.4961 201.952C19.2352 201.56 18.587 201.56 18.3261 201.952C18.1408 202.271 15.6667 206.451 15.8181 206.19C15.6747 206.406 15.661 206.683 15.7831 206.912Z" fill="white"/>
<path d="M29.8095 210.095C29.8095 209.836 29.6667 209.598 29.438 209.475C29.2095 209.353 28.9321 209.367 28.7164 209.51C28.5739 209.593 24.2027 212.131 24.478 211.971C24.0867 212.232 24.0867 212.88 24.478 213.141C24.9395 213.409 28.8748 215.741 28.7164 215.649C28.9321 215.793 29.2095 215.806 29.438 215.684C29.6667 215.562 29.8095 215.324 29.8095 215.064V214.102C32.9686 213.461 35.5913 211.395 37.0345 208.616C36.8585 208.663 36.6763 208.689 36.4892 208.689C35.2948 208.689 34.8425 207.928 34.5139 207.381C33.5365 209.219 31.8504 210.622 29.8095 211.202V210.095Z" fill="white"/>
</g>
<defs>
<linearGradient id="paint0_linear_4718_71667" x1="240.706" y1="93.8008" x2="265.824" y2="162.594" gradientUnits="userSpaceOnUse">
<stop stop-color="#FFCD17"/>
<stop offset="1" stop-color="#FFB710"/>
</linearGradient>
<linearGradient id="paint1_linear_4718_71667" x1="466.384" y1="7.00195" x2="497.781" y2="92.9929" gradientUnits="userSpaceOnUse">
<stop stop-color="#FFCD17"/>
<stop offset="1" stop-color="#FFB710"/>
</linearGradient>
<linearGradient id="paint2_linear_4718_71667" x1="18.0296" y1="177.6" x2="36.8678" y2="229.194" gradientUnits="userSpaceOnUse">
<stop stop-color="#FFCD17"/>
<stop offset="1" stop-color="#FFB710"/>
</linearGradient>
<clipPath id="clip0_4718_71667">
<rect width="32" height="32" fill="white" transform="translate(237.6 112.691)"/>
</clipPath>
<clipPath id="clip1_4718_71667">
<rect width="40" height="40" fill="white" transform="translate(462.499 30.6152)"/>
</clipPath>
<clipPath id="clip2_4718_71667">
<rect width="24" height="24" fill="white" transform="translate(15.7002 191.768)"/>
</clipPath>
</defs>
</svg>
