<svg width="66" height="83" viewBox="0 0 66 83" fill="none" xmlns="http://www.w3.org/2000/svg">
<path d="M43.8188 0.979648L41.5485 4.3534L33.0012 17.0652L24.4539 4.3534L22.1836 0.979648C22.4678 0.833179 22.7906 0.750014 23.1332 0.750014H42.8705C43.2118 0.748772 43.5346 0.833179 43.8188 0.979648Z" fill="#FFB610"/>
<path d="M22.0285 33.3809L13.4811 46.0926L11.2109 49.4664C10.9055 49.3112 10.6448 49.0779 10.4537 48.7986L0.851276 34.5203C0.627848 34.1951 0.5 33.8041 0.5 33.3809H22.0285Z" fill="#FFB610"/>
<path d="M22.0282 33.3796L33.0009 17.0645H11.0566L22.0282 33.3796Z" fill="#FFB610"/>
<path d="M54.5322 17.0645C54.5322 17.4331 54.4329 17.7782 54.2616 18.0773C54.2554 18.086 54.2504 18.0947 54.2442 18.1059L54.1313 18.2759C54.1226 18.2871 54.1139 18.2958 54.1077 18.3045L44.3228 32.8583C44.3166 32.8695 44.3116 32.8781 44.3054 32.8844C44.2297 32.9874 44.1081 33.0544 43.9715 33.0544C43.8375 33.0544 43.7196 32.9911 43.6463 32.893L43.6116 32.8409L33 17.0645H54.5322Z" fill="#FFB610"/>
<path d="M22.1807 81.773L24.4509 78.3993L32.9983 65.6875L41.5456 78.3993L43.8159 81.773C43.5316 81.9195 43.2089 82.0027 42.8663 82.0027H23.1302C22.7876 82.0027 22.4649 81.9195 22.1807 81.773Z" fill="#FFB610"/>
<path d="M43.9717 49.3707L52.519 36.6589L54.7893 33.2852C55.0946 33.4403 55.3553 33.6737 55.5465 33.953L65.1489 48.2312C65.3723 48.5564 65.5002 48.9474 65.5002 49.3707H43.9717Z" fill="#FFB610"/>
<path d="M43.9718 49.3711L32.999 65.6875H54.9433L43.9718 49.3711Z" fill="#FFB610"/>
<path d="M11.4678 65.6872C11.4678 65.3186 11.5671 64.9735 11.7384 64.6743C11.7446 64.6657 11.7495 64.657 11.7557 64.6458L11.8687 64.4757C11.8774 64.4646 11.8861 64.4559 11.8923 64.4472L21.6772 49.8934C21.6834 49.8822 21.6883 49.8735 21.6945 49.8673C21.7703 49.7643 21.8919 49.6973 22.0284 49.6973C22.1625 49.6973 22.2804 49.7606 22.3537 49.8586L22.3884 49.9108L33 65.6872H11.4678Z" fill="#FFB610"/>
<path d="M33.0009 17.066H11.0566L21.4249 1.64827C21.6161 1.36898 21.878 1.13563 22.1821 0.980469L24.4524 4.35422L33.0009 17.066Z" fill="#FDCB36"/>
<path d="M54.5319 17.066H33.001L41.5483 4.35422L43.8186 0.980469C44.1239 1.13563 44.3846 1.36898 44.5758 1.64827L54.1546 15.8918L54.2179 15.9873C54.419 16.3001 54.5319 16.6688 54.5319 17.066Z" fill="#FDCB36"/>
<path d="M32.6453 49.2876C32.6453 49.5123 32.4591 49.696 32.2332 49.696H12.1595C11.8169 49.696 11.4942 49.6129 11.21 49.4664L13.4802 46.0926L22.0276 33.3809L32.5584 49.0406L32.5932 49.0928C32.628 49.1499 32.6453 49.2157 32.6453 49.2876Z" fill="#FDCB36"/>
<path d="M22.0285 33.3809H0.5C0.5 32.9725 0.621642 32.5889 0.831415 32.2699C0.842587 32.2525 0.854999 32.2352 0.86617 32.2178L11.0569 17.0645L22.0285 33.3809Z" fill="#FDCB36"/>
<path d="M32.999 65.6875H54.9433L44.575 81.1052C44.3839 81.3845 44.122 81.6179 43.8179 81.773L41.5476 78.3993L32.999 65.6875Z" fill="#FDCB36"/>
<path d="M11.4678 65.6875H32.9987L24.4514 78.3993L22.1811 81.773C21.8758 81.6179 21.6151 81.3845 21.4239 81.1052L11.8451 66.8617L11.7818 66.7662C11.5807 66.4521 11.4678 66.0847 11.4678 65.6875Z" fill="#FDCB36"/>
<path d="M33.3555 33.465C33.3555 33.2403 33.5417 33.0566 33.7676 33.0566H53.8413C54.1839 33.0566 54.5066 33.1398 54.7908 33.2863L52.5206 36.66L43.9732 49.3718L33.4424 33.712L33.4076 33.6599C33.3729 33.6028 33.3555 33.537 33.3555 33.465Z" fill="#FDCB36"/>
<path d="M43.9717 49.3711H65.5002C65.5002 49.7795 65.3785 50.163 65.1687 50.482C65.1576 50.4994 65.1451 50.5168 65.134 50.5342L54.9432 65.6875L43.9717 49.3711Z" fill="#FDCB36"/>
</svg>
