<svg width="196" height="56" viewBox="0 0 196 56" fill="none" xmlns="http://www.w3.org/2000/svg">
<path d="M27.657 3.14092L26.2599 5.21686L21.0004 13.0403L15.7408 5.21686L14.3438 3.14092C14.5195 3.05 14.7165 3 14.9286 3H27.0737C27.2843 3 27.4813 3.05152 27.657 3.14092Z" fill="#FCB416"/>
<path d="M14.2481 23.0804L8.98858 30.9039L7.59149 32.9798C7.40359 32.8843 7.24297 32.7404 7.12478 32.5692L1.21668 23.7835C1.07879 23.5835 1 23.3426 1 23.082H14.2481V23.0804Z" fill="#FCB416"/>
<path d="M14.2482 23.0806L21.0003 13.0403H7.49609L14.2482 23.0806Z" fill="#FCB416"/>
<path d="M34.2497 13.0403C34.2497 13.2676 34.1891 13.4797 34.083 13.6631C34.08 13.6676 34.0754 13.6737 34.0724 13.6812L34.0027 13.7858C33.9966 13.7934 33.9921 13.7979 33.9891 13.804C33.9891 13.804 27.9613 22.773 27.9567 22.776C27.9098 22.8396 27.8355 22.8805 27.7506 22.8805C27.6688 22.8805 27.5946 22.8411 27.5506 22.782L27.5294 22.7502L20.9985 13.0418H34.2497V13.0403Z" fill="#FCB416"/>
<path d="M14.3423 52.8592L15.7394 50.7833L20.9989 42.9598L26.2585 50.7833L27.6556 52.8592C27.4798 52.9501 27.2828 53.0001 27.0707 53.0001H14.9257C14.715 53.0001 14.5165 52.9486 14.3423 52.8592Z" fill="#FCB416"/>
<path d="M27.751 32.9191L33.0105 25.0957L34.4076 23.0198C34.5955 23.1152 34.7561 23.2592 34.8743 23.4304L40.7824 32.216C40.9203 32.4161 40.9991 32.657 40.9991 32.9176H27.751V32.9191Z" fill="#FCB416"/>
<path d="M27.7506 32.9192L20.9985 42.9595H34.5028L27.7506 32.9192Z" fill="#FCB416"/>
<path d="M7.74902 42.961C7.74902 42.7337 7.80964 42.5216 7.91571 42.3382C7.91874 42.3337 7.92328 42.3276 7.92631 42.32L7.99602 42.2155C8.00208 42.2079 8.00662 42.2033 8.00965 42.1973C8.00965 42.1973 14.0375 33.2283 14.042 33.2253C14.089 33.1616 14.1632 33.1207 14.2481 33.1207C14.3299 33.1207 14.4042 33.1601 14.4481 33.2192L14.4693 33.251L21.0002 42.9595H7.74902V42.961Z" fill="#FCB416"/>
<path d="M21.0003 13.0408H7.49609L13.877 3.55359C13.9951 3.38236 14.1558 3.23841 14.3437 3.14294L15.7408 5.21889L21.0003 13.0408Z" fill="#FAC934"/>
<path d="M34.2496 13.0407H21L26.2596 5.2173L27.6566 3.14136C27.8445 3.23682 28.0052 3.38078 28.1234 3.552L34.0178 12.3164L34.0572 12.3755C34.1799 12.5695 34.2496 12.7968 34.2496 13.0407Z" fill="#FAC934"/>
<path d="M20.7804 32.8697C20.7804 33.0076 20.6668 33.1212 20.5273 33.1212H8.17475C7.96412 33.1212 7.76562 33.0697 7.58984 32.9803L8.98694 30.9043L14.2465 23.0809L20.7274 32.7166L20.7486 32.7484C20.7698 32.7848 20.7804 32.8257 20.7804 32.8697Z" fill="#FAC934"/>
<path d="M14.2481 23.0812H1C1 22.8296 1.07576 22.5948 1.20305 22.3978C1.21062 22.3872 1.21668 22.3766 1.22426 22.366L7.49602 13.0409L14.2481 23.0812Z" fill="#FAC934"/>
<path d="M20.9985 42.9601H34.5028L28.1219 52.4473C28.0037 52.6185 27.8431 52.7625 27.6552 52.8579L26.2581 50.782L20.9985 42.9601Z" fill="#FAC934"/>
<path d="M7.74902 42.9601H20.9987L15.7391 50.7835L14.342 52.8594C14.1541 52.764 13.9935 52.62 13.8753 52.4488L7.98087 43.6844L7.94147 43.6253C7.81873 43.4313 7.74902 43.2056 7.74902 42.9601Z" fill="#FAC934"/>
<path d="M21.2183 23.1309C21.2183 22.993 21.3319 22.8794 21.4713 22.8794H33.8239C34.0345 22.8794 34.233 22.9309 34.4088 23.0203L33.0117 25.0962L27.7522 32.9197L21.2713 23.284L21.2501 23.2521C21.2289 23.2173 21.2183 23.1764 21.2183 23.1309Z" fill="#FAC934"/>
<path d="M27.751 32.9197H40.9991C40.9991 33.1712 40.9233 33.4061 40.7961 33.6031C40.7885 33.6137 40.7824 33.6243 40.7748 33.6349L34.5031 42.96L27.751 32.9197Z" fill="#FAC934"/>
<path d="M61.708 32.9196C60.8943 32.9196 60.1155 32.8045 59.373 32.5742C58.6305 32.3438 57.9486 31.9999 57.3289 31.5392C56.7091 31.0801 56.1697 30.5179 55.7105 29.8542C55.2499 29.1905 54.8877 28.4177 54.6226 27.5328L57.9926 26.2054C58.2395 27.1616 58.6729 27.9525 59.2927 28.5799C59.9124 29.2087 60.7261 29.5224 61.7338 29.5224C62.105 29.5224 62.4642 29.4739 62.8081 29.3769C63.1536 29.2799 63.4627 29.1375 63.737 28.9526C64.0113 28.7662 64.2279 28.5329 64.3871 28.2495C64.5462 27.9662 64.6265 27.6389 64.6265 27.2676C64.6265 26.9146 64.5643 26.5948 64.4401 26.3115C64.3158 26.0281 64.1082 25.7629 63.8158 25.516C63.5233 25.269 63.143 25.0296 62.6748 24.7992C62.2066 24.5689 61.6262 24.331 60.9367 24.0825L59.7685 23.6582C59.2548 23.4824 58.7381 23.243 58.2153 22.9415C57.6925 22.6415 57.2198 22.2778 56.7955 21.8535C56.3712 21.4292 56.0212 20.9292 55.7469 20.3549C55.4726 19.7806 55.3363 19.1305 55.3363 18.4047C55.3363 17.6622 55.4817 16.9682 55.7742 16.3212C56.0666 15.6757 56.4818 15.109 57.0213 14.6226C57.5607 14.1362 58.2062 13.7558 58.9578 13.4816C59.7094 13.2073 60.5458 13.0709 61.4656 13.0709C62.4217 13.0709 63.2476 13.1997 63.9476 13.4558C64.6462 13.7119 65.2386 14.0392 65.725 14.4377C66.2114 14.8362 66.6054 15.2741 66.9055 15.7515C67.2055 16.2288 67.4267 16.6803 67.5692 17.1046L64.4113 18.432C64.234 17.9017 63.9112 17.4228 63.443 16.9985C62.9748 16.5743 62.3323 16.3621 61.5186 16.3621C60.7398 16.3621 60.0942 16.544 59.5821 16.9061C59.0684 17.2683 58.8123 17.7425 58.8123 18.3259C58.8123 18.8927 59.0593 19.3745 59.5548 19.7715C60.0503 20.17 60.8367 20.5549 61.9171 20.9262L63.1112 21.3247C63.8718 21.5899 64.5659 21.8959 65.1947 22.2399C65.822 22.5854 66.363 22.996 66.813 23.4734C67.2646 23.9507 67.6085 24.4947 67.848 25.1053C68.0874 25.716 68.2056 26.4191 68.2056 27.2146C68.2056 28.2056 68.0071 29.0587 67.6085 29.7754C67.21 30.4922 66.7024 31.0801 66.0827 31.5407C65.4629 32.0014 64.7644 32.3454 63.987 32.5757C63.2112 32.8045 62.452 32.9196 61.708 32.9196Z" fill="#2C2C2C"/>
<path d="M73.8096 13.4955H77.3387L83.1498 23.5524H83.3619L89.173 13.4955H92.7294V32.4956H89.173V23.1281L89.3852 19.943H89.173L84.3438 28.4619H82.1952L77.3387 19.943H77.1265L77.3387 23.1281V32.4956H73.8096V13.4955V13.4955Z" fill="#2C2C2C"/>
<path d="M104.751 13.4955H108.838L115.976 32.4956H112.023L110.458 27.9574H103.133L101.568 32.4956H97.6143L104.751 13.4955ZM109.29 24.6677L107.591 19.9173L106.901 17.608H106.689L105.998 19.9173L104.3 24.6677H109.29Z" fill="#2C2C2C"/>
<path d="M120.859 13.4955H127.785C128.74 13.4955 129.607 13.6455 130.385 13.947C131.164 14.2486 131.831 14.6638 132.389 15.1941C132.946 15.7245 133.375 16.3579 133.675 17.0913C133.975 17.8262 134.127 18.6262 134.127 19.493C134.127 20.1294 134.021 20.7264 133.809 21.284C133.596 21.8417 133.304 22.3463 132.933 22.7963C132.561 23.2479 132.128 23.6449 131.633 23.9903C131.137 24.3358 130.616 24.6056 130.067 24.7995L130.04 24.9859L135.136 32.2835V32.4956H131.022L126.112 25.3571H124.441V32.4956H120.859V13.4955V13.4955ZM127.759 22.0675C128.573 22.0675 129.241 21.8205 129.763 21.325C130.284 20.8295 130.546 20.2021 130.546 19.4415C130.546 19.1051 130.489 18.7778 130.373 18.4596C130.258 18.1413 130.085 17.858 129.855 17.611C129.625 17.364 129.338 17.164 128.993 17.014C128.647 16.864 128.253 16.7882 127.813 16.7882H124.443V22.069H127.759V22.0675Z" fill="#2C2C2C"/>
<path d="M144 32.4956V16.8927H138.692V13.4955H152.891V16.8927H147.583V32.4972H144V32.4956Z" fill="#2C2C2C"/>
<path d="M166.292 32.9198C164.877 32.9198 163.563 32.6637 162.351 32.15C161.138 31.6364 160.09 30.9333 159.206 30.0408C158.321 29.1483 157.627 28.0951 157.123 26.8829C156.618 25.6707 156.367 24.3751 156.367 22.9947C156.367 21.6143 156.618 20.3187 157.123 19.1065C157.627 17.8942 158.321 16.8426 159.206 15.9486C160.091 15.0561 161.138 14.3515 162.351 13.8393C163.563 13.3257 164.875 13.0696 166.292 13.0696C167.707 13.0696 169.021 13.3257 170.233 13.8393C171.445 14.353 172.492 15.0561 173.377 15.9486C174.262 16.8426 174.956 17.8942 175.461 19.1065C175.965 20.3187 176.217 21.6143 176.217 22.9947C176.217 24.3751 175.965 25.6707 175.461 26.8829C174.956 28.0951 174.262 29.1483 173.377 30.0408C172.492 30.9348 171.444 31.6379 170.233 32.15C169.019 32.6637 167.707 32.9198 166.292 32.9198ZM166.292 29.5241C167.177 29.5241 168.004 29.3649 168.774 29.0467C169.544 28.7285 170.215 28.2861 170.791 27.7193C171.365 27.1526 171.817 26.4677 172.144 25.6631C172.471 24.8585 172.635 23.969 172.635 22.9962C172.635 22.0234 172.471 21.1339 172.144 20.3293C171.817 19.5247 171.365 18.8398 170.791 18.2731C170.215 17.7079 169.544 17.2654 168.774 16.9457C168.004 16.6275 167.177 16.4684 166.292 16.4684C165.407 16.4684 164.58 16.6275 163.811 16.9457C163.042 17.2639 162.369 17.7064 161.794 18.2731C161.22 18.8398 160.769 19.5247 160.441 20.3293C160.114 21.1339 159.95 22.0234 159.95 22.9962C159.95 23.969 160.114 24.8585 160.441 25.6631C160.769 26.4677 161.22 27.1541 161.794 27.7193C162.369 28.2861 163.042 28.727 163.811 29.0467C164.58 29.3649 165.407 29.5241 166.292 29.5241Z" fill="#2C2C2C"/>
<path d="M187.574 32.9198C186.76 32.9198 185.981 32.8046 185.239 32.5743C184.496 32.344 183.814 32 183.195 31.5393C182.575 31.0802 182.035 30.518 181.576 29.8543C181.116 29.1906 180.753 28.4178 180.488 27.5329L183.858 26.2055C184.105 27.1617 184.539 27.9527 185.158 28.58C185.778 29.2088 186.592 29.5225 187.6 29.5225C187.971 29.5225 188.33 29.474 188.674 29.377C189.019 29.28 189.328 29.1376 189.603 28.9527C189.877 28.7664 190.094 28.533 190.253 28.2496C190.412 27.9663 190.492 27.639 190.492 27.2677C190.492 26.9147 190.43 26.595 190.306 26.3116C190.182 26.0282 189.974 25.7631 189.682 25.5161C189.389 25.2691 189.009 25.0297 188.541 24.7994C188.072 24.569 187.492 24.3311 186.802 24.0826L185.634 23.6583C185.121 23.4826 184.604 23.2432 184.081 22.9416C183.558 22.6416 183.085 22.2779 182.661 21.8536C182.237 21.4294 181.887 20.9293 181.613 20.355C181.338 19.7807 181.202 19.1307 181.202 18.4048C181.202 17.6624 181.347 16.9684 181.64 16.3213C181.932 15.6758 182.348 15.1091 182.887 14.6227C183.426 14.1363 184.072 13.756 184.824 13.4817C185.575 13.2074 186.412 13.071 187.331 13.071C188.287 13.071 189.113 13.1998 189.813 13.4559C190.512 13.712 191.104 14.0393 191.591 14.4378C192.077 14.8364 192.471 15.2743 192.771 15.7516C193.071 16.2289 193.292 16.6805 193.435 17.1047L190.277 18.4321C190.1 17.9018 189.777 17.4229 189.309 16.9987C188.841 16.5744 188.198 16.3622 187.384 16.3622C186.605 16.3622 185.96 16.5441 185.448 16.9062C184.934 17.2684 184.678 17.7427 184.678 18.3261C184.678 18.8928 184.925 19.3746 185.421 19.7716C185.916 20.1702 186.702 20.555 187.783 20.9263L188.977 21.3248C189.738 21.59 190.432 21.8961 191.06 22.24C191.688 22.5855 192.229 22.9962 192.679 23.4735C193.13 23.9508 193.474 24.4948 193.714 25.1054C193.953 25.7161 194.071 26.4192 194.071 27.2147C194.071 28.2057 193.873 29.0588 193.474 29.7755C193.076 30.4923 192.568 31.0802 191.948 31.5409C191.329 32.0015 190.63 32.3455 189.853 32.5758C189.077 32.8046 188.316 32.9198 187.574 32.9198Z" fill="#2C2C2C"/>
<path d="M57.8971 41.5523C57.8971 41.972 57.744 42.31 57.4364 42.5645C57.1243 42.8145 56.7455 42.9388 56.3 42.9388C55.903 42.9388 55.5529 42.8236 55.2514 42.5918C54.9483 42.36 54.7392 42.0433 54.6226 41.6432L55.2105 41.4023C55.2499 41.5447 55.3059 41.6735 55.3772 41.7902C55.4484 41.9069 55.5317 42.0054 55.6272 42.0872C55.7227 42.169 55.8287 42.2342 55.9454 42.2812C56.0606 42.3281 56.1833 42.3509 56.3136 42.3509C56.5939 42.3509 56.8243 42.2781 57.0016 42.1342C57.1804 41.9902 57.2682 41.7963 57.2682 41.5553C57.2682 41.3553 57.194 41.1841 57.047 41.0401C56.9091 40.9023 56.65 40.7689 56.2712 40.6386C55.8878 40.5007 55.6499 40.4068 55.556 40.3583C55.0483 40.1007 54.7938 39.7188 54.7938 39.2157C54.7938 38.8642 54.9347 38.5627 55.215 38.3126C55.4999 38.0626 55.8499 37.9384 56.2636 37.9384C56.6288 37.9384 56.9455 38.0323 57.2122 38.2187C57.4789 38.402 57.6577 38.6308 57.7471 38.9066L57.1728 39.1476C57.1198 38.9688 57.0137 38.8203 56.8546 38.7036C56.697 38.5854 56.503 38.5263 56.2757 38.5263C56.0348 38.5263 55.8318 38.593 55.6681 38.7263C55.5029 38.8506 55.4211 39.0127 55.4211 39.2112C55.4211 39.3748 55.4863 39.5173 55.6151 39.637C55.7575 39.7567 56.0666 39.8991 56.5439 40.0628C57.0288 40.228 57.3758 40.431 57.5834 40.6689C57.794 40.9113 57.8971 41.2053 57.8971 41.5523Z" fill="#2C2C2C"/>
<path d="M61.393 42.8328H60.7778V38.0475H61.393L63.0568 40.9614H63.0841L64.7479 38.0475H65.3631V42.8328H64.7479V39.9916L64.7752 39.19H64.7479L63.2508 41.816H62.8901L61.393 39.19H61.3658L61.393 39.9916V42.8328Z" fill="#2C2C2C"/>
<path d="M68.7454 42.8328H68.0635L69.8682 38.0475H70.5637L72.3684 42.8328H71.6865L71.2259 41.5357H69.2136L68.7454 42.8328ZM70.2015 38.8021L69.4196 40.9614H71.0107L70.2288 38.8021H70.2015Z" fill="#2C2C2C"/>
<path d="M75.6821 42.8328H75.0669V38.0475H76.6973C77.111 38.0475 77.4641 38.1839 77.7565 38.4581C78.049 38.7324 78.1944 39.0703 78.1944 39.4703C78.1944 39.8007 78.0869 40.0931 77.8702 40.3492C77.6535 40.6053 77.3807 40.7689 77.0519 40.8402L77.0383 40.8599L78.3823 42.8055V42.8328H77.6535L76.364 40.8947H75.6821V42.8328V42.8328ZM75.6821 38.6354V40.3204H76.6716C76.9216 40.3204 77.1322 40.2386 77.3065 40.0765C77.4807 39.9143 77.5671 39.7128 77.5671 39.4719C77.5671 39.2491 77.4853 39.0536 77.3232 38.8869C77.161 38.7203 76.9565 38.6369 76.711 38.6369H75.6821V38.6354Z" fill="#2C2C2C"/>
<path d="M82.6997 38.6354V42.8328H82.0845V38.6354H80.748V38.0475H84.0362V38.6354H82.6997Z" fill="#2C2C2C"/>
<path d="M89.6106 38.0475V38.6355H87.4316V40.1523H89.3969V40.7266H87.4316V42.2434H89.6106V42.8313H86.8164V38.046H89.6106V38.0475Z" fill="#2C2C2C"/>
<path d="M93.1928 42.8328H92.5776V38.0475H94.2081C94.6218 38.0475 94.9748 38.1839 95.2673 38.4581C95.5597 38.7324 95.7052 39.0703 95.7052 39.4703C95.7052 39.8007 95.5976 40.0931 95.3809 40.3492C95.1642 40.6053 94.8915 40.7689 94.5627 40.8402L94.549 40.8599L95.8931 42.8055V42.8328H95.1642L93.8747 40.8947H93.1928V42.8328V42.8328ZM93.1928 38.6354V40.3204H94.1823C94.4323 40.3204 94.643 40.2386 94.8172 40.0765C94.9915 39.9143 95.0779 39.7128 95.0779 39.4719C95.0779 39.2491 94.996 39.0536 94.8339 38.8869C94.6718 38.7203 94.4672 38.6369 94.2217 38.6369H93.1928V38.6354Z" fill="#2C2C2C"/>
<path d="M106.741 40.4401C106.741 41.1493 106.505 41.7417 106.032 42.2175C105.555 42.6994 104.971 42.9388 104.28 42.9388C103.585 42.9388 103.001 42.6979 102.528 42.2175C102.056 41.7402 101.819 41.1477 101.819 40.4401C101.819 39.7325 102.056 39.1385 102.528 38.6627C103.001 38.1808 103.585 37.9414 104.28 37.9414C104.976 37.9414 105.559 38.1839 106.032 38.6703C106.505 39.1461 106.741 39.7355 106.741 40.4401ZM102.45 40.4401C102.45 40.9932 102.624 41.4493 102.971 41.8099C103.323 42.1706 103.759 42.3509 104.28 42.3509C104.801 42.3509 105.236 42.1706 105.583 41.8099C105.935 41.4538 106.111 40.9962 106.111 40.4401C106.111 39.884 105.935 39.4264 105.583 39.0703C105.236 38.7097 104.801 38.5293 104.28 38.5293C103.759 38.5293 103.323 38.7097 102.971 39.0703C102.624 39.4309 102.45 39.887 102.45 40.4401Z" fill="#2C2C2C"/>
<path d="M110.223 40.8947V42.8328H109.608V38.0475H111.238C111.652 38.0475 112.005 38.1854 112.295 38.4612C112.588 38.7369 112.735 39.0733 112.735 39.4703C112.735 39.8749 112.588 40.2143 112.295 40.4856C112.01 40.7568 111.657 40.8932 111.238 40.8932H110.223V40.8947ZM110.223 38.6354V40.3068H111.252C111.497 40.3068 111.701 40.2249 111.86 40.0598C112.025 39.8946 112.107 39.6991 112.107 39.4719C112.107 39.2491 112.025 39.0551 111.86 38.89C111.699 38.7203 111.496 38.6354 111.252 38.6354H110.223Z" fill="#2C2C2C"/>
<path d="M118.31 38.0475V38.6355H116.131V40.1523H118.096V40.7266H116.131V42.2434H118.31V42.8313H115.516V38.046H118.31V38.0475Z" fill="#2C2C2C"/>
<path d="M121.892 42.8328H121.277V38.0475H122.907C123.321 38.0475 123.674 38.1839 123.966 38.4581C124.259 38.7324 124.404 39.0703 124.404 39.4703C124.404 39.8007 124.297 40.0931 124.08 40.3492C123.863 40.6053 123.591 40.7689 123.262 40.8402L123.248 40.8599L124.592 42.8055V42.8328H123.863L122.574 40.8947H121.892V42.8328ZM121.892 38.6354V40.3204H122.882C123.132 40.3204 123.342 40.2386 123.516 40.0765C123.691 39.9143 123.777 39.7128 123.777 39.4719C123.777 39.2491 123.695 39.0536 123.533 38.8869C123.371 38.7203 123.166 38.6369 122.921 38.6369H121.892V38.6354Z" fill="#2C2C2C"/>
<path d="M127.559 42.8328H126.877L128.682 38.0475H129.378L131.182 42.8328H130.5L130.04 41.5357H128.028L127.559 42.8328ZM129.016 38.8021L128.234 40.9614H129.825L129.043 38.8021H129.016Z" fill="#2C2C2C"/>
<path d="M135.078 38.6354V42.8328H134.463V38.6354H133.126V38.0475H136.415V38.6354H135.078Z" fill="#2C2C2C"/>
<path d="M139.811 42.8328H139.195V38.0475H139.811V42.8328Z" fill="#2C2C2C"/>
<path d="M143.525 42.8328H142.91V38.0475H143.659L145.985 41.7705H146.012L145.985 40.8477V38.0475H146.6V42.8328H145.959L143.525 38.9294H143.498L143.525 39.8522V42.8328Z" fill="#2C2C2C"/>
<path d="M154.241 40.6339C154.241 41.3021 154.042 41.8355 153.645 42.231C153.2 42.7038 152.613 42.9402 151.887 42.9402C151.192 42.9402 150.604 42.6992 150.124 42.2189C149.642 41.737 149.402 41.1445 149.402 40.4415C149.402 39.7384 149.643 39.1444 150.124 38.664C150.605 38.1822 151.193 37.9427 151.887 37.9427C152.239 37.9427 152.571 38.0049 152.883 38.1291C153.195 38.2534 153.451 38.4307 153.651 38.658L153.21 39.0989C153.063 38.9201 152.872 38.7807 152.639 38.6807C152.406 38.5807 152.154 38.5307 151.887 38.5307C151.366 38.5307 150.925 38.711 150.565 39.0716C150.208 39.4368 150.03 39.8944 150.03 40.4415C150.03 40.9885 150.208 41.4461 150.565 41.8113C150.925 42.1719 151.366 42.3522 151.887 42.3522C152.365 42.3522 152.76 42.2189 153.077 41.9507C153.394 41.684 153.575 41.3158 153.625 40.8475H151.887V40.2733H154.207C154.229 40.3975 154.241 40.5172 154.241 40.6339Z" fill="#2C2C2C"/>
<path d="M163.49 41.5523C163.49 41.972 163.337 42.31 163.029 42.5645C162.717 42.8145 162.338 42.9388 161.893 42.9388C161.496 42.9388 161.146 42.8236 160.843 42.5918C160.54 42.36 160.331 42.0433 160.214 41.6432L160.802 41.4023C160.841 41.5447 160.897 41.6735 160.968 41.7902C161.04 41.9069 161.123 42.0054 161.219 42.0872C161.314 42.169 161.42 42.2342 161.537 42.2812C161.652 42.3281 161.775 42.3509 161.905 42.3509C162.185 42.3509 162.416 42.2781 162.593 42.1342C162.772 41.9902 162.86 41.7963 162.86 41.5553C162.86 41.3553 162.785 41.1841 162.638 41.0401C162.5 40.9023 162.241 40.7689 161.862 40.6386C161.479 40.5007 161.241 40.4068 161.147 40.3583C160.64 40.1007 160.385 39.7188 160.385 39.2157C160.385 38.8642 160.526 38.5627 160.806 38.3126C161.091 38.0626 161.441 37.9384 161.855 37.9384C162.22 37.9384 162.537 38.0323 162.803 38.2187C163.07 38.402 163.249 38.6308 163.338 38.9066L162.764 39.1476C162.711 38.9688 162.605 38.8203 162.446 38.7036C162.288 38.5854 162.094 38.5263 161.867 38.5263C161.626 38.5263 161.423 38.593 161.259 38.7263C161.094 38.8506 161.012 39.0127 161.012 39.2112C161.012 39.3748 161.078 39.5173 161.206 39.637C161.349 39.7567 161.658 39.8991 162.135 40.0628C162.62 40.228 162.967 40.431 163.175 40.6689C163.382 40.9068 163.49 41.2053 163.49 41.5523Z" fill="#2C2C2C"/>
<path d="M167.995 40.6068V42.8328H167.379V40.6068L165.769 38.0475H166.49L167.673 39.9931H167.701L168.857 38.0475H169.578L167.995 40.6068Z" fill="#2C2C2C"/>
<path d="M175.132 41.5523C175.132 41.972 174.979 42.31 174.671 42.5645C174.359 42.8145 173.98 42.9388 173.535 42.9388C173.138 42.9388 172.788 42.8236 172.486 42.5918C172.183 42.36 171.974 42.0433 171.857 41.6432L172.445 41.4023C172.485 41.5447 172.541 41.6735 172.612 41.7902C172.683 41.9069 172.767 42.0054 172.862 42.0872C172.958 42.169 173.064 42.2342 173.18 42.2812C173.295 42.3281 173.418 42.3509 173.548 42.3509C173.829 42.3509 174.059 42.2781 174.236 42.1342C174.415 41.9902 174.503 41.7963 174.503 41.5553C174.503 41.3553 174.429 41.1841 174.282 41.0401C174.144 40.9023 173.885 40.7689 173.506 40.6386C173.123 40.5007 172.885 40.4068 172.791 40.3583C172.283 40.1007 172.029 39.7188 172.029 39.2157C172.029 38.8642 172.17 38.5627 172.45 38.3126C172.735 38.0626 173.085 37.9384 173.498 37.9384C173.864 37.9384 174.18 38.0323 174.447 38.2187C174.714 38.402 174.893 38.6308 174.982 38.9066L174.408 39.1476C174.355 38.9688 174.249 38.8203 174.089 38.7036C173.932 38.5854 173.738 38.5263 173.511 38.5263C173.27 38.5263 173.067 38.593 172.903 38.7263C172.738 38.8506 172.656 39.0127 172.656 39.2112C172.656 39.3748 172.721 39.5173 172.85 39.637C172.992 39.7567 173.301 39.8991 173.779 40.0628C174.264 40.228 174.611 40.431 174.818 40.6689C175.029 40.9113 175.132 41.2053 175.132 41.5523Z" fill="#2C2C2C"/>
<path d="M179.578 38.6354V42.8328H178.962V38.6354H177.626V38.0475H180.914V38.6354H179.578Z" fill="#2C2C2C"/>
<path d="M186.487 38.0475V38.6355H184.308V40.1523H186.273V40.7266H184.308V42.2434H186.487V42.8313H183.693V38.046H186.487V38.0475Z" fill="#2C2C2C"/>
<path d="M190.069 42.8328H189.454V38.0475H190.069L191.733 40.9614H191.76L193.424 38.0475H194.039V42.8328H193.424V39.9916L193.451 39.19H193.424L191.927 41.816H191.566L190.069 39.19H190.042L190.069 39.9916V42.8328V42.8328Z" fill="#2C2C2C"/>
</svg>
