<svg width="387" height="100" viewBox="0 0 387 100" fill="none" xmlns="http://www.w3.org/2000/svg">
<path d="M53.3154 0.281844L50.5212 4.43378L40.0019 20.0808L29.4827 4.43378L26.6885 0.281844C27.04 0.100008 27.434 0 27.8583 0H52.1486C52.5699 0 52.9639 0.103038 53.3154 0.281844Z" fill="#FCB416"/>
<path d="M26.4966 40.1621L15.9774 55.8091L13.1831 59.9611C12.8074 59.7702 12.4861 59.4822 12.2497 59.1398L0.433375 41.5683C0.157589 41.1683 0 40.6864 0 40.1651H26.4966V40.1621Z" fill="#FCB416"/>
<path d="M26.4976 40.1648L40.002 20.084H12.9932L26.4976 40.1648Z" fill="#FCB416"/>
<path d="M66.5007 20.084C66.5007 20.5386 66.3795 20.9629 66.1674 21.3296C66.1613 21.3387 66.1522 21.3508 66.1462 21.3659L66.0067 21.575C65.9946 21.5902 65.9855 21.5993 65.9795 21.6114C65.9795 21.6114 53.9237 39.5496 53.9146 39.5556C53.8207 39.6829 53.6722 39.7648 53.5024 39.7648C53.3388 39.7648 53.1903 39.686 53.1024 39.5678L53.06 39.5041L39.998 20.087H66.5007V20.084Z" fill="#FCB416"/>
<path d="M26.6846 99.7189L29.4788 95.567L39.998 79.9199L50.5173 95.567L53.3115 99.7189C52.96 99.9007 52.566 100.001 52.1417 100.001H27.8514C27.4301 100.001 27.0331 99.8977 26.6846 99.7189Z" fill="#FCB416"/>
<path d="M53.5029 59.838L64.0222 44.191L66.8164 40.0391C67.1922 40.23 67.5134 40.5179 67.7498 40.8603L79.5662 58.4318C79.842 58.8319 79.9995 59.3137 79.9995 59.835H53.5029V59.838Z" fill="#FCB416"/>
<path d="M53.5024 59.8418L39.998 79.9226H67.0068L53.5024 59.8418Z" fill="#FCB416"/>
<path d="M13.4971 79.923C13.4971 79.4684 13.6183 79.0441 13.8304 78.6774C13.8365 78.6683 13.8456 78.6562 13.8517 78.641L13.9911 78.4319C14.0032 78.4168 14.0123 78.4077 14.0183 78.3955C14.0183 78.3955 26.0741 60.4574 26.0832 60.4513C26.1771 60.324 26.3256 60.2422 26.4954 60.2422C26.659 60.2422 26.8075 60.321 26.8954 60.4392L26.9378 60.5028L39.9998 79.9199H13.4971V79.923Z" fill="#FCB416"/>
<path d="M40.002 20.085H12.9932L25.7551 1.11036C25.9914 0.767896 26.3127 0.479991 26.6885 0.289062L29.4827 4.441L40.002 20.085Z" fill="#FAC934"/>
<path d="M66.5026 20.0802H40.0029L50.5222 4.43319L53.3164 0.28125C53.6922 0.472178 54.0134 0.760093 54.2498 1.10255L66.0389 18.6316L66.1177 18.7498C66.3632 19.1377 66.5026 19.5923 66.5026 20.0802Z" fill="#FAC934"/>
<path d="M39.5602 59.7399C39.5602 60.0156 39.3329 60.2429 39.0541 60.2429H14.3485C13.9273 60.2429 13.5303 60.1399 13.1787 59.9611L15.9729 55.8091L26.4922 40.1621L39.4541 59.4338L39.4965 59.4974C39.5389 59.5701 39.5602 59.652 39.5602 59.7399Z" fill="#FAC934"/>
<path d="M26.4966 40.157H0C0 39.6539 0.151529 39.1842 0.4061 38.7902C0.421254 38.769 0.433371 38.7478 0.448524 38.7265L12.9922 20.0762L26.4966 40.157Z" fill="#FAC934"/>
<path d="M39.998 79.9199H67.0068L54.2449 98.8946C54.0086 99.237 53.6873 99.5249 53.3115 99.7159L50.5173 95.5639L39.998 79.9199Z" fill="#FAC934"/>
<path d="M13.4971 79.9199H39.9967L29.4775 95.567L26.6833 99.7189C26.3075 99.528 25.9862 99.2401 25.7498 98.8976L13.9608 81.3686L13.882 81.2504C13.6365 80.8624 13.4971 80.4109 13.4971 79.9199Z" fill="#FAC934"/>
<path d="M40.4375 40.2628C40.4375 39.9871 40.6648 39.7598 40.9436 39.7598H65.6491C66.0704 39.7598 66.4674 39.8628 66.8189 40.0416L64.0247 44.1935L53.5055 59.8406L40.5436 40.5689L40.5011 40.5053C40.4587 40.4356 40.4375 40.3538 40.4375 40.2628Z" fill="#FAC934"/>
<path d="M53.5029 59.8379H79.9995C79.9995 60.341 79.848 60.8107 79.5935 61.2047C79.5783 61.2259 79.5662 61.2471 79.551 61.2683L67.0073 79.9187L53.5029 59.8379Z" fill="#FAC934"/>
<path d="M121.419 59.8464C119.792 59.8464 118.234 59.6161 116.749 59.1554C115.264 58.6948 113.9 58.0068 112.661 57.0855C111.421 56.1672 110.342 55.0429 109.424 53.7155C108.503 52.3881 107.778 50.8424 107.248 49.0726L113.988 46.4178C114.482 48.3301 115.349 49.9121 116.588 51.1667C117.828 52.4244 119.455 53.0518 121.471 53.0518C122.213 53.0518 122.931 52.9548 123.619 52.7608C124.31 52.5669 124.929 52.282 125.477 51.9123C126.026 51.5395 126.459 51.0728 126.777 50.506C127.096 49.9393 127.256 49.2847 127.256 48.5422C127.256 47.8361 127.132 47.1966 126.883 46.6299C126.635 46.0632 126.22 45.5328 125.635 45.0388C125.05 44.5448 124.289 44.066 123.353 43.6054C122.416 43.1447 121.256 42.6689 119.877 42.1719L117.54 41.3233C116.513 40.9718 115.479 40.4929 114.434 39.8898C113.388 39.2898 112.443 38.5624 111.594 37.7139C110.745 36.8653 110.045 35.8652 109.497 34.7166C108.948 33.568 108.675 32.2678 108.675 30.8162C108.675 29.3312 108.966 27.9432 109.551 26.6491C110.136 25.3581 110.967 24.2246 112.046 23.2518C113.124 22.279 114.415 21.5183 115.919 20.9697C117.422 20.4212 119.095 20.1484 120.934 20.1484C122.847 20.1484 124.498 20.406 125.898 20.9182C127.296 21.4304 128.48 22.085 129.453 22.8821C130.426 23.6791 131.214 24.5549 131.814 25.5096C132.414 26.4642 132.857 27.3674 133.142 28.2159L126.826 30.8707C126.471 29.81 125.826 28.8524 124.889 28.0038C123.953 27.1552 122.668 26.7309 121.04 26.7309C119.483 26.7309 118.192 27.0946 117.167 27.8189C116.14 28.5432 115.628 29.4918 115.628 30.6586C115.628 31.792 116.122 32.7558 117.113 33.5498C118.104 34.3468 119.677 35.1166 121.837 35.8591L124.226 36.6562C125.747 37.1865 127.135 37.7987 128.393 38.4867C129.647 39.1776 130.729 39.9989 131.629 40.9536C132.532 41.9082 133.22 42.9962 133.699 44.2175C134.178 45.4389 134.414 46.8451 134.414 48.4362C134.414 50.4182 134.017 52.1244 133.22 53.5579C132.423 54.9913 131.408 56.1672 130.169 57.0885C128.929 58.0098 127.532 58.6978 125.977 59.1584C124.426 59.6161 122.907 59.8464 121.419 59.8464Z" fill="#070632"/>
<path d="M145.621 20.9902H152.679L164.302 41.1044H164.726L176.348 20.9902H183.461V58.991H176.348V40.2558L176.773 33.8855H176.348L166.69 50.9236H162.392L152.679 33.8855H152.255L152.679 40.2558V58.991H145.621V20.9902Z" fill="#070632"/>
<path d="M207.507 20.9902H215.68L229.957 58.991H222.05L218.92 49.9144H204.27L201.139 58.991H193.232L207.507 20.9902ZM216.583 43.3349L213.186 33.834L211.807 29.2153H211.383L210.001 33.834L206.603 43.3349H216.583Z" fill="#070632"/>
<path d="M239.723 20.9902H253.576C255.485 20.9902 257.218 21.2903 258.776 21.8934C260.334 22.4964 261.667 23.3268 262.783 24.3875C263.898 25.4483 264.756 26.715 265.356 28.1819C265.956 29.6517 266.259 31.2519 266.259 32.9854C266.259 34.2582 266.047 35.4523 265.622 36.5676C265.198 37.6828 264.613 38.692 263.871 39.5921C263.128 40.4952 262.261 41.2892 261.27 41.9802C260.279 42.6712 259.237 43.2107 258.14 43.5986L258.085 43.9713L268.277 58.5668V58.991H260.049L250.23 44.7138H246.887V58.991H239.723V20.9902ZM253.524 38.1344C255.151 38.1344 256.488 37.6404 257.531 36.6494C258.573 35.6584 259.097 34.4037 259.097 32.8823C259.097 32.2095 258.982 31.5549 258.752 30.9185C258.522 30.2821 258.176 29.7154 257.715 29.2214C257.255 28.7274 256.682 28.3273 255.991 28.0273C255.3 27.7273 254.512 27.5757 253.63 27.5757H246.89V38.1374H253.524V38.1344Z" fill="#070632"/>
<path d="M286.007 58.991V27.7849H275.391V20.9902H303.787V27.7849H293.171V58.9941H286.007V58.991Z" fill="#070632"/>
<path d="M330.589 59.8416C327.758 59.8416 325.131 59.3294 322.706 58.3021C320.282 57.2747 318.184 55.8685 316.418 54.0834C314.648 52.2984 313.26 50.1922 312.251 47.7677C311.241 45.3432 310.738 42.752 310.738 39.9911C310.738 37.2302 311.241 34.6391 312.251 32.2146C313.26 29.7901 314.648 27.6868 316.418 25.8988C318.188 24.1138 320.282 22.7045 322.706 21.6802C325.131 20.6528 327.755 20.1406 330.589 20.1406C333.419 20.1406 336.047 20.6528 338.471 21.6802C340.896 22.7075 342.99 24.1138 344.76 25.8988C346.53 27.6868 347.918 29.7901 348.927 32.2146C349.936 34.6391 350.439 37.2302 350.439 39.9911C350.439 42.752 349.936 45.3432 348.927 47.7677C347.918 50.1922 346.53 52.2984 344.76 54.0834C342.99 55.8715 340.893 57.2777 338.471 58.3021C336.044 59.3294 333.419 59.8416 330.589 59.8416ZM330.589 53.05C332.359 53.05 334.013 52.7318 335.553 52.0954C337.092 51.4589 338.435 50.574 339.587 49.4405C340.735 48.3071 341.638 46.9373 342.293 45.328C342.948 43.7188 343.275 41.9398 343.275 39.9941C343.275 38.0485 342.948 36.2695 342.293 34.6603C341.638 33.051 340.735 31.6812 339.587 30.5477C338.435 29.4173 337.092 28.5324 335.553 27.8929C334.013 27.2565 332.359 26.9383 330.589 26.9383C328.819 26.9383 327.164 27.2565 325.628 27.8929C324.088 28.5293 322.743 29.4143 321.594 30.5477C320.445 31.6812 319.542 33.051 318.888 34.6603C318.233 36.2695 317.906 38.0485 317.906 39.9941C317.906 41.9398 318.233 43.7188 318.888 45.328C319.542 46.9373 320.445 48.3101 321.594 49.4405C322.743 50.574 324.088 51.4559 325.628 52.0954C327.164 52.7318 328.819 53.05 330.589 53.05Z" fill="#070632"/>
<path d="M373.153 59.8464C371.525 59.8464 369.967 59.6161 368.482 59.1554C366.997 58.6948 365.634 58.0068 364.394 57.0855C363.155 56.1672 362.076 55.0429 361.157 53.7155C360.236 52.3881 359.512 50.8424 358.981 49.0726L365.722 46.4178C366.216 48.3301 367.082 49.9121 368.322 51.1667C369.561 52.4244 371.189 53.0518 373.204 53.0518C373.947 53.0518 374.665 52.9548 375.353 52.7608C376.044 52.5669 376.662 52.282 377.211 51.9123C377.759 51.5395 378.192 51.0728 378.511 50.506C378.829 49.9393 378.99 49.2847 378.99 48.5422C378.99 47.8361 378.865 47.1966 378.617 46.6299C378.368 46.0632 377.953 45.5328 377.368 45.0388C376.783 44.5448 376.023 44.066 375.086 43.6054C374.15 43.1447 372.989 42.6689 371.61 42.1719L369.273 41.3233C368.246 40.9718 367.213 40.4929 366.167 39.8898C365.121 39.2898 364.176 38.5624 363.327 37.7139C362.479 36.8653 361.779 35.8652 361.23 34.7166C360.682 33.568 360.409 32.2678 360.409 30.8162C360.409 29.3312 360.7 27.9432 361.285 26.6491C361.87 25.3581 362.7 24.2246 363.779 23.2518C364.858 22.279 366.149 21.5183 367.652 20.9697C369.155 20.4212 370.828 20.1484 372.668 20.1484C374.58 20.1484 376.232 20.406 377.632 20.9182C379.029 21.4304 380.214 22.085 381.187 22.8821C382.16 23.6791 382.948 24.5549 383.548 25.5096C384.148 26.4642 384.59 27.3674 384.875 28.2159L378.559 30.8707C378.205 29.81 377.559 28.8524 376.623 28.0038C375.686 27.1552 374.401 26.7309 372.774 26.7309C371.216 26.7309 369.925 27.0946 368.901 27.8189C367.873 28.5432 367.361 29.4918 367.361 30.6586C367.361 31.792 367.855 32.7558 368.846 33.5498C369.837 34.3468 371.41 35.1166 373.571 35.8591L375.959 36.6562C377.48 37.1865 378.868 37.7987 380.126 38.4867C381.381 39.1776 382.463 39.9989 383.363 40.9536C384.266 41.9082 384.954 42.9962 385.433 44.2175C385.911 45.4389 386.148 46.8451 386.148 48.4362C386.148 50.4182 385.751 52.1244 384.954 53.5579C384.157 54.9913 383.141 56.1672 381.902 57.0885C380.662 58.0098 379.265 58.6978 377.711 59.1584C376.159 59.6161 374.638 59.8464 373.153 59.8464Z" fill="#070632"/>
<path d="M113.797 77.1011C113.797 77.9405 113.491 78.6164 112.876 79.1255C112.252 79.6256 111.494 79.8741 110.603 79.8741C109.809 79.8741 109.109 79.6437 108.506 79.1801C107.9 78.7164 107.481 78.083 107.248 77.2829L108.424 76.801C108.503 77.0859 108.615 77.3435 108.757 77.5769C108.9 77.8102 109.066 78.0072 109.257 78.1709C109.448 78.3345 109.66 78.4648 109.894 78.5588C110.124 78.6527 110.37 78.6982 110.63 78.6982C111.191 78.6982 111.652 78.5527 112.006 78.2648C112.364 77.9769 112.539 77.589 112.539 77.1071C112.539 76.7071 112.391 76.3646 112.097 76.0767C111.821 75.8009 111.303 75.5342 110.545 75.2736C109.779 74.9978 109.303 74.8099 109.115 74.7129C108.1 74.1977 107.591 73.434 107.591 72.4279C107.591 71.7248 107.872 71.1217 108.433 70.6216C109.003 70.1216 109.703 69.873 110.53 69.873C111.261 69.873 111.894 70.061 112.427 70.4337C112.961 70.8004 113.318 71.258 113.497 71.8096L112.349 72.2915C112.242 71.9339 112.03 71.6369 111.712 71.4035C111.397 71.1671 111.009 71.0489 110.554 71.0489C110.073 71.0489 109.666 71.1823 109.339 71.449C109.009 71.6975 108.845 72.0218 108.845 72.4188C108.845 72.7461 108.975 73.0309 109.233 73.2704C109.518 73.5098 110.136 73.7947 111.091 74.122C112.061 74.4523 112.755 74.8584 113.17 75.3342C113.591 75.8191 113.797 76.4071 113.797 77.1011Z" fill="#070632"/>
<path d="M120.788 79.6605H119.558V70.0898H120.788L124.116 75.9177H124.17L127.498 70.0898H128.728V79.6605H127.498V73.9781L127.552 72.3749H127.498L124.504 77.627H123.782L120.788 72.3749H120.733L120.788 73.9781V79.6605Z" fill="#070632"/>
<path d="M135.492 79.6605H134.128L137.737 70.0898H139.128L142.738 79.6605H141.374L140.453 77.0663H136.428L135.492 79.6605ZM138.404 71.5991L136.84 75.9177H140.022L138.459 71.5991H138.404Z" fill="#070632"/>
<path d="M149.37 79.6605H148.14V70.0898H151.401C152.228 70.0898 152.934 70.3626 153.519 70.9111C154.104 71.4597 154.395 72.1355 154.395 72.9356C154.395 73.5963 154.18 74.1812 153.746 74.6933C153.313 75.2055 152.767 75.5328 152.11 75.6753L152.082 75.7147L154.771 79.606V79.6605H153.313L150.734 75.7844H149.37V79.6605ZM149.37 71.2657V74.6358H151.349C151.849 74.6358 152.27 74.4721 152.619 74.1478C152.967 73.8236 153.14 73.4205 153.14 72.9386C153.14 72.4931 152.977 72.1022 152.652 71.7688C152.328 71.4354 151.919 71.2688 151.428 71.2688H149.37V71.2657Z" fill="#070632"/>
<path d="M163.402 71.2657V79.6605H162.172V71.2657H159.499V70.0898H166.075V71.2657H163.402Z" fill="#070632"/>
<path d="M177.224 70.0909V71.2668H172.866V74.3004H176.797V75.449H172.866V78.4827H177.224V79.6586H171.636V70.0879H177.224V70.0909Z" fill="#070632"/>
<path d="M184.387 79.6605H183.156V70.0898H186.417C187.245 70.0898 187.951 70.3626 188.536 70.9111C189.12 71.4597 189.411 72.1355 189.411 72.9356C189.411 73.5963 189.196 74.1812 188.763 74.6933C188.329 75.2055 187.784 75.5328 187.126 75.6753L187.099 75.7147L189.787 79.606V79.6605H188.33L185.75 75.7844H184.387V79.6605ZM184.387 71.2657V74.6358H186.366C186.866 74.6358 187.287 74.4721 187.635 74.1478C187.984 73.8236 188.157 73.4205 188.157 72.9386C188.157 72.4931 187.993 72.1022 187.669 71.7688C187.345 71.4354 186.935 71.2688 186.444 71.2688H184.387V71.2657Z" fill="#070632"/>
<path d="M211.485 74.8783C211.485 76.2967 211.012 77.4816 210.067 78.4332C209.112 79.397 207.945 79.8758 206.563 79.8758C205.172 79.8758 204.005 79.394 203.06 78.4332C202.114 77.4786 201.642 76.2936 201.642 74.8783C201.642 73.463 202.114 72.275 203.06 71.3234C204.005 70.3597 205.172 69.8809 206.563 69.8809C207.954 69.8809 209.121 70.3658 210.067 71.3386C211.012 72.2902 211.485 73.4691 211.485 74.8783ZM202.902 74.8783C202.902 75.9845 203.251 76.8967 203.945 77.618C204.648 78.3393 205.521 78.6999 206.563 78.6999C207.606 78.6999 208.476 78.3393 209.17 77.618C209.873 76.9058 210.224 75.9906 210.224 74.8783C210.224 73.7661 209.873 72.8509 209.17 72.1387C208.476 71.4174 207.606 71.0567 206.563 71.0567C205.521 71.0567 204.648 71.4174 203.945 72.1387C203.251 72.86 202.902 73.7722 202.902 74.8783Z" fill="#070632"/>
<path d="M218.451 75.7844V79.6605H217.221V70.0898H220.482C221.309 70.0898 222.015 70.3656 222.594 70.9172C223.182 71.4688 223.476 72.1416 223.476 72.9356C223.476 73.7448 223.182 74.4236 222.594 74.9661C222.024 75.5086 221.318 75.7813 220.482 75.7813H218.451V75.7844ZM218.451 71.2657V74.6085H220.509C221 74.6085 221.406 74.4448 221.724 74.1145C222.055 73.7841 222.218 73.3932 222.218 72.9386C222.218 72.4931 222.055 72.1052 221.724 71.7749C221.403 71.4354 220.997 71.2657 220.509 71.2657H218.451Z" fill="#070632"/>
<path d="M234.625 70.0909V71.2668H230.267V74.3004H234.197V75.449H230.267V78.4827H234.625V79.6586H229.036V70.0879H234.625V70.0909Z" fill="#070632"/>
<path d="M241.788 79.6605H240.558V70.0898H243.819C244.646 70.0898 245.352 70.3626 245.937 70.9111C246.522 71.4597 246.813 72.1355 246.813 72.9356C246.813 73.5963 246.598 74.1812 246.164 74.6933C245.731 75.2055 245.185 75.5328 244.528 75.6753L244.5 75.7147L247.189 79.606V79.6605H245.731L243.152 75.7844H241.788V79.6605ZM241.788 71.2657V74.6358H243.767C244.267 74.6358 244.688 74.4721 245.037 74.1478C245.385 73.8236 245.558 73.4205 245.558 72.9386C245.558 72.4931 245.394 72.1022 245.07 71.7688C244.746 71.4354 244.337 71.2688 243.846 71.2688H241.788V71.2657Z" fill="#070632"/>
<path d="M253.125 79.6605H251.761L255.37 70.0898H256.761L260.371 79.6605H259.007L258.086 77.0663H254.061L253.125 79.6605ZM256.037 71.5991L254.473 75.9177H257.655L256.091 71.5991H256.037Z" fill="#070632"/>
<path d="M268.159 71.2657V79.6605H266.929V71.2657H264.256V70.0898H270.832V71.2657H268.159Z" fill="#070632"/>
<path d="M277.627 79.6605H276.396V70.0898H277.627V79.6605Z" fill="#070632"/>
<path d="M285.057 79.6605H283.826V70.0898H285.323L289.975 77.5361H290.03L289.975 75.6904V70.0898H291.206V79.6605H289.924L285.057 71.8537H285.002L285.057 73.6993V79.6605Z" fill="#070632"/>
<path d="M306.485 75.2652C306.485 76.6017 306.088 77.6684 305.294 78.4594C304.403 79.405 303.23 79.8778 301.779 79.8778C300.388 79.8778 299.212 79.3959 298.251 78.4352C297.287 77.4714 296.809 76.2865 296.809 74.8803C296.809 73.4741 297.29 72.2861 298.251 71.3254C299.215 70.3617 300.391 69.8828 301.779 69.8828C302.482 69.8828 303.146 70.0071 303.77 70.2556C304.394 70.5041 304.906 70.8587 305.306 71.3133L304.425 72.1952C304.131 71.8376 303.749 71.5587 303.282 71.3587C302.815 71.1587 302.312 71.0587 301.779 71.0587C300.736 71.0587 299.854 71.4193 299.133 72.1406C298.421 72.871 298.063 73.7862 298.063 74.8803C298.063 75.9743 298.421 76.8896 299.133 77.6199C299.854 78.3412 300.736 78.7019 301.779 78.7019C302.733 78.7019 303.524 78.4352 304.158 77.8988C304.791 77.3654 305.155 76.6289 305.255 75.6925H301.779V74.5439H306.419C306.461 74.7924 306.485 75.0318 306.485 75.2652Z" fill="#070632"/>
<path d="M324.986 77.1011C324.986 77.9405 324.68 78.6164 324.064 79.1255C323.44 79.6256 322.682 79.8741 321.791 79.8741C320.997 79.8741 320.297 79.6437 319.691 79.1801C319.085 78.7164 318.667 78.083 318.434 77.2829L319.609 76.801C319.688 77.0859 319.8 77.3435 319.943 77.5769C320.085 77.8102 320.252 78.0072 320.443 78.1709C320.634 78.3345 320.846 78.4648 321.079 78.5588C321.31 78.6527 321.555 78.6982 321.816 78.6982C322.376 78.6982 322.837 78.5527 323.192 78.2648C323.549 77.9769 323.725 77.589 323.725 77.1071C323.725 76.7071 323.577 76.3646 323.283 76.0767C323.007 75.8009 322.489 75.5342 321.731 75.2736C320.964 74.9978 320.488 74.8099 320.3 74.7129C319.285 74.1977 318.776 73.434 318.776 72.4279C318.776 71.7248 319.058 71.1217 319.619 70.6216C320.188 70.1216 320.888 69.873 321.716 69.873C322.446 69.873 323.08 70.061 323.613 70.4337C324.146 70.8004 324.504 71.258 324.683 71.8096L323.534 72.2915C323.428 71.9339 323.216 71.6369 322.898 71.4035C322.582 71.1671 322.195 71.0489 321.74 71.0489C321.258 71.0489 320.852 71.1823 320.525 71.449C320.194 71.6975 320.031 72.0218 320.031 72.4188C320.031 72.7461 320.161 73.0309 320.419 73.2704C320.703 73.5098 321.322 73.7947 322.276 74.122C323.246 74.4523 323.94 74.8584 324.355 75.3342C324.771 75.81 324.986 76.4071 324.986 77.1011Z" fill="#070632"/>
<path d="M333.996 75.2085V79.6605H332.765V75.2085L329.544 70.0898H330.987L333.353 73.9811H333.408L335.72 70.0898H337.163L333.996 75.2085Z" fill="#070632"/>
<path d="M348.271 77.1011C348.271 77.9405 347.965 78.6164 347.35 79.1255C346.725 79.6256 345.968 79.8741 345.077 79.8741C344.283 79.8741 343.582 79.6437 342.979 79.1801C342.373 78.7164 341.955 78.083 341.722 77.2829L342.898 76.801C342.976 77.0859 343.088 77.3435 343.231 77.5769C343.373 77.8102 343.54 78.0072 343.731 78.1709C343.922 78.3345 344.134 78.4648 344.367 78.5588C344.598 78.6527 344.843 78.6982 345.104 78.6982C345.665 78.6982 346.125 78.5527 346.48 78.2648C346.837 77.9769 347.013 77.589 347.013 77.1071C347.013 76.7071 346.865 76.3646 346.571 76.0767C346.295 75.8009 345.777 75.5342 345.019 75.2736C344.252 74.9978 343.776 74.8099 343.589 74.7129C342.573 74.1977 342.064 73.434 342.064 72.4279C342.064 71.7248 342.346 71.1217 342.907 70.6216C343.476 70.1216 344.176 69.873 345.004 69.873C345.734 69.873 346.368 70.061 346.901 70.4337C347.434 70.8004 347.792 71.258 347.971 71.8096L346.822 72.2915C346.716 71.9339 346.504 71.6369 346.186 71.4035C345.871 71.1671 345.483 71.0489 345.028 71.0489C344.546 71.0489 344.14 71.1823 343.813 71.449C343.482 71.6975 343.319 72.0218 343.319 72.4188C343.319 72.7461 343.449 73.0309 343.707 73.2704C343.992 73.5098 344.61 73.7947 345.565 74.122C346.534 74.4523 347.228 74.8584 347.644 75.3342C348.065 75.8191 348.271 76.4071 348.271 77.1011Z" fill="#070632"/>
<path d="M357.162 71.2657V79.6605H355.932V71.2657H353.259V70.0898H359.835V71.2657H357.162Z" fill="#070632"/>
<path d="M370.981 70.0909V71.2668H366.623V74.3004H370.554V75.449H366.623V78.4827H370.981V79.6586H365.393V70.0879H370.981V70.0909Z" fill="#070632"/>
<path d="M378.145 79.6605H376.915V70.0898H378.145L381.473 75.9177H381.528L384.855 70.0898H386.086V79.6605H384.855V73.9781L384.91 72.3749H384.855L381.861 77.627H381.14L378.145 72.3749H378.091L378.145 73.9781V79.6605Z" fill="#070632"/>
</svg>
