<svg width="1em" height="1em" viewBox="0 0 44 44" fill="none" xmlns="http://www.w3.org/2000/svg">
<circle cx="22" cy="22" r="22" fill="currentColor" opacity="0.2"/>
<path d="M31.7008 22.0326C29.8763 22.0326 28.0522 22.0326 26.2276 22.0326C26.1453 22.0326 26.078 22.0582 26.0234 22.0986C26.0178 22.1026 26.012 22.1055 26.0066 22.1101C25.998 22.1173 25.9906 22.1262 25.9825 22.1343C25.9518 22.1646 25.9228 22.2 25.8987 22.2467C25.5021 23.0109 25.1061 23.775 24.7099 24.5392C23.8894 22.2674 23.0685 19.9956 22.248 17.7238C22.1162 17.359 21.7621 17.3106 21.5515 17.6207C19.9443 19.987 18.3372 22.3533 16.7301 24.7196C16.4387 23.9796 16.1471 23.2394 15.8558 22.4997C15.8027 22.3648 15.6495 22.2856 15.5268 22.2856C14.1445 22.2856 12.7624 22.2856 11.38 22.2856C11.1723 22.2856 10.999 22.4824 10.999 22.7178C10.999 22.8138 10.999 22.91 10.999 23.006C10.999 23.2414 11.1723 23.4382 11.38 23.4382C12.609 23.4382 13.8379 23.4382 15.067 23.4382C15.0861 23.4382 15.1008 23.4376 15.1168 23.4373C15.2258 23.714 15.3348 23.9906 15.4437 24.2672C15.7143 24.9539 15.9848 25.6408 16.2553 26.3272C16.3864 26.6595 16.7608 26.552 16.9135 26.3272C18.513 23.9721 20.1125 21.6174 21.712 19.2626C22.5556 21.5978 23.3994 23.9332 24.243 26.2684C24.3621 26.5984 24.7569 26.7234 24.9393 26.3716C25.3363 25.6063 25.733 24.8406 26.1301 24.0753C26.2837 23.7788 26.4377 23.4817 26.5916 23.1849C26.6825 23.1849 26.774 23.1849 26.8652 23.1849C28.4774 23.1849 30.0891 23.1849 31.7013 23.1849C31.9089 23.1849 32.0824 22.9881 32.0824 22.7527C32.0824 22.6567 32.0824 22.5605 32.0824 22.4645C32.0818 22.2294 31.9084 22.0326 31.7008 22.0326Z" fill="currentColor" stroke="currentColor" stroke-width="0.25"/>
</svg>
