<svg width="1em" height="1em" viewBox="0 0 24 24" fill="none" xmlns="http://www.w3.org/2000/svg">
<mask id="mask0" maskType="alpha" maskUnits="userSpaceOnUse" x="2" y="2" width="20" height="20">
<path fill-rule="evenodd" clip-rule="evenodd" d="M2 2.00049H21.5391V21.5403H2V2.00049Z" fill="white"/>
</mask>
<g mask="url(#mask0)">
<path fill-rule="evenodd" clip-rule="evenodd" d="M6.64405 18.9777C7.17132 18.9777 7.66859 19.1777 8.19496 19.3896C11.4195 20.8805 15.2331 20.2023 17.7177 17.7186C20.9959 14.4386 20.9959 9.10319 17.7177 5.82501C16.1304 4.23774 14.0195 3.3641 11.7722 3.3641C9.52405 3.3641 7.41223 4.23865 5.82587 5.82592C3.34041 8.30956 2.66405 12.1232 4.14132 15.3168C4.35405 15.8432 4.5595 16.3559 4.5595 16.8886C4.5595 17.4205 4.37678 17.9559 4.21587 18.4286C4.08314 18.8177 3.88223 19.405 4.01132 19.5341C4.13769 19.665 4.72859 19.4586 5.11859 19.325C5.58678 19.165 6.11769 18.9814 6.64405 18.9777ZM11.7495 21.5405C10.3604 21.5405 8.96222 21.2469 7.65403 20.6414C7.26858 20.4869 6.90767 20.3414 6.64858 20.3414C6.3504 20.3432 5.94949 20.4814 5.56222 20.615C4.76767 20.8878 3.77858 21.2278 3.04676 20.4987C2.31767 19.7687 2.65403 18.7823 2.92494 17.9887C3.05858 17.5978 3.19585 17.1941 3.19585 16.8887C3.19585 16.6378 3.07494 16.3178 2.88949 15.8569C1.18676 12.1796 1.97403 7.74776 4.86222 4.8614C6.70585 3.01685 9.15949 2.00049 11.7713 2.00049C14.3831 2.00049 16.8377 3.01594 18.6813 4.86049C22.4922 8.6714 22.4922 14.8714 18.6813 18.6823C16.8131 20.5514 14.2977 21.5405 11.7495 21.5405Z" fill="currentColor"/>
</g>
<path fill-rule="evenodd" clip-rule="evenodd" d="M15.3605 13.0574C14.8587 13.0574 14.4478 12.6511 14.4478 12.1483C14.4478 11.6456 14.8505 11.2393 15.3523 11.2393H15.3605C15.8623 11.2393 16.2696 11.6456 16.2696 12.1483C16.2696 12.6511 15.8623 13.0574 15.3605 13.0574Z" fill="currentColor"/>
<path fill-rule="evenodd" clip-rule="evenodd" d="M11.7159 13.0574C11.2141 13.0574 10.8032 12.6511 10.8032 12.1483C10.8032 11.6456 11.205 11.2393 11.7078 11.2393H11.7159C12.2178 11.2393 12.625 11.6456 12.625 12.1483C12.625 12.6511 12.2178 13.0574 11.7159 13.0574Z" fill="currentColor"/>
<path fill-rule="evenodd" clip-rule="evenodd" d="M8.07142 13.0574C7.5696 13.0574 7.15869 12.6511 7.15869 12.1483C7.15869 11.6456 7.56142 11.2393 8.06324 11.2393H8.07142C8.57324 11.2393 8.98051 11.6456 8.98051 12.1483C8.98051 12.6511 8.57324 13.0574 8.07142 13.0574Z" fill="currentColor"/>
</svg>
