<svg width="31" height="35" viewBox="0 0 31 35" fill="none" xmlns="http://www.w3.org/2000/svg">
<path d="M4.375 3.837C4.375 2.34931 5.95 0.365723 8.05 0.365723H22.5L29.3381 6.67783C30.1584 7.43506 30.625 8.50066 30.625 9.61705V30.6155C30.625 33.7892 27.825 34.252 26.425 34.0867H8.05C5.53 34.0867 4.55 31.7726 4.375 30.6155V3.837Z" fill="#F6F3F4"/>
<rect x="4.375" y="17.8657" width="23.125" height="12.5" rx="4" fill="#DED9DB"/>
<rect y="16.6157" width="26.25" height="12.5" rx="2" fill="#5487F5"/>
<path d="M5.41416 28.5097C4.77416 28.5097 4.18216 28.3937 3.63816 28.1617C3.10216 27.9297 2.63016 27.6057 2.22216 27.1897C1.82216 26.7737 1.51016 26.2857 1.28616 25.7257C1.06216 25.1657 0.950156 24.5537 0.950156 23.8897C0.950156 23.2257 1.05816 22.6137 1.27416 22.0537C1.49816 21.4857 1.81016 20.9977 2.21016 20.5897C2.61816 20.1737 3.09416 19.8537 3.63816 19.6297C4.18216 19.3977 4.77416 19.2817 5.41416 19.2817C6.05416 19.2817 6.62616 19.3897 7.13016 19.6057C7.64216 19.8217 8.07416 20.1097 8.42616 20.4697C8.77816 20.8217 9.03016 21.2097 9.18216 21.6337L7.71816 22.3177C7.55016 21.8697 7.26616 21.5017 6.86616 21.2137C6.46616 20.9177 5.98216 20.7697 5.41416 20.7697C4.85416 20.7697 4.35816 20.9017 3.92616 21.1657C3.50216 21.4297 3.17016 21.7937 2.93016 22.2577C2.69816 22.7217 2.58216 23.2657 2.58216 23.8897C2.58216 24.5137 2.69816 25.0617 2.93016 25.5337C3.17016 25.9977 3.50216 26.3617 3.92616 26.6257C4.35816 26.8897 4.85416 27.0217 5.41416 27.0217C5.98216 27.0217 6.46616 26.8777 6.86616 26.5897C7.26616 26.2937 7.55016 25.9217 7.71816 25.4737L9.18216 26.1577C9.03016 26.5817 8.77816 26.9737 8.42616 27.3337C8.07416 27.6857 7.64216 27.9697 7.13016 28.1857C6.62616 28.4017 6.05416 28.5097 5.41416 28.5097ZM13.7591 28.5097C13.1911 28.5097 12.6631 28.4057 12.1751 28.1977C11.6951 27.9897 11.2791 27.7017 10.9271 27.3337C10.5831 26.9577 10.3311 26.5217 10.1711 26.0257L11.5271 25.4377C11.7431 25.9497 12.0551 26.3537 12.4631 26.6497C12.8711 26.9377 13.3311 27.0817 13.8431 27.0817C14.1311 27.0817 14.3791 27.0377 14.5871 26.9497C14.8031 26.8537 14.9671 26.7257 15.0791 26.5657C15.1991 26.4057 15.2591 26.2137 15.2591 25.9897C15.2591 25.7257 15.1791 25.5097 15.0191 25.3417C14.8671 25.1657 14.6351 25.0297 14.3231 24.9337L12.6071 24.3817C11.9111 24.1657 11.3871 23.8417 11.0351 23.4097C10.6831 22.9777 10.5071 22.4697 10.5071 21.8857C10.5071 21.3737 10.6311 20.9217 10.8791 20.5297C11.1351 20.1377 11.4871 19.8337 11.9351 19.6177C12.3911 19.3937 12.9111 19.2817 13.4951 19.2817C14.0311 19.2817 14.5231 19.3777 14.9711 19.5697C15.4191 19.7537 15.8031 20.0137 16.1231 20.3497C16.4511 20.6777 16.6951 21.0657 16.8551 21.5137L15.5111 22.1137C15.3351 21.6657 15.0711 21.3217 14.7191 21.0817C14.3671 20.8337 13.9591 20.7097 13.4951 20.7097C13.2231 20.7097 12.9831 20.7577 12.7751 20.8537C12.5671 20.9417 12.4031 21.0697 12.2831 21.2377C12.1711 21.3977 12.1151 21.5897 12.1151 21.8137C12.1151 22.0617 12.1951 22.2817 12.3551 22.4737C12.5151 22.6577 12.7591 22.8017 13.0871 22.9057L14.7311 23.4217C15.4431 23.6537 15.9751 23.9737 16.3271 24.3817C16.6871 24.7897 16.8671 25.2937 16.8671 25.8937C16.8671 26.4057 16.7351 26.8577 16.4711 27.2497C16.2071 27.6417 15.8431 27.9497 15.3791 28.1737C14.9151 28.3977 14.3751 28.5097 13.7591 28.5097ZM20.7847 28.3657L17.6647 19.4257H19.4407L21.8887 26.8297H21.5407L23.9887 19.4257H25.7647L22.6567 28.3657H20.7847Z" fill="white"/>
<path d="M30.625 15.9907L23.75 8.80322L22.5 0.365723L29.3381 6.67783C30.1584 7.43506 30.625 8.50066 30.625 9.61705V15.9907Z" fill="#F0ECEE"/>
<path d="M22.5 6.38135V0.912598V0.365723L29.7065 7.01787C30.292 7.55834 30.625 8.3189 30.625 9.11572H25.2083C23.0417 9.11572 22.5 7.29281 22.5 6.38135Z" fill="#DED9DB"/>
</svg>
