<svg width="1em" height="1em" viewBox="0 0 24 24" fill="none" xmlns="http://www.w3.org/2000/svg">
<path d="M21.2131 9.23103C21.2161 9.28606 21.2121 9.34206 21.1983 9.39768L19.9646 14.3323C19.9024 14.5809 19.6796 14.7557 19.4235 14.757L12.0216 14.7944C12.0206 14.7944 12.0197 14.7944 12.0188 14.7944H4.61682C4.35933 14.7944 4.13495 14.619 4.07275 14.3691L2.8391 9.41585C2.8249 9.35873 2.82079 9.30116 2.82437 9.24471C2.34714 9.09436 2 8.64778 2 8.1215C2 7.47215 2.52822 6.94393 3.17757 6.94393C3.82692 6.94393 4.35514 7.47215 4.35514 8.1215C4.35514 8.48718 4.18759 8.81435 3.92523 9.0305L5.46976 10.5867C5.86011 10.98 6.40179 11.2055 6.95596 11.2055C7.61122 11.2055 8.23596 10.8944 8.62938 10.373L11.1677 7.00972C10.9545 6.79664 10.8224 6.50221 10.8224 6.17757C10.8224 5.52822 11.3507 5 12 5C12.6493 5 13.1776 5.52822 13.1776 6.17757C13.1776 6.49249 13.0526 6.77832 12.8505 6.98983C12.8511 6.99073 12.852 6.99148 12.8526 6.99245L15.3726 10.365C15.7658 10.8914 16.3928 11.2056 17.0499 11.2056C17.6092 11.2056 18.1351 10.9878 18.5305 10.5923L20.0848 9.03806C19.8169 8.82198 19.6449 8.49166 19.6449 8.1215C19.6449 7.47215 20.1731 6.94393 20.8224 6.94393C21.4718 6.94393 22 7.47215 22 8.1215C22 8.63372 21.6707 9.06938 21.2131 9.23103ZM19.8443 16.5514C19.8443 16.2417 19.5932 15.9907 19.2835 15.9907H4.77884C4.46916 15.9907 4.21809 16.2417 4.21809 16.5514V17.8972C4.21809 18.2069 4.46916 18.4579 4.77884 18.4579H19.2835C19.5932 18.4579 19.8443 18.2069 19.8443 17.8972V16.5514Z" fill="currentColor"/>
</svg>
