<svg width="20" height="20" viewBox="0 0 20 20" fill="none" xmlns="http://www.w3.org/2000/svg">
<path d="M6.66699 4.79199C6.32533 4.79199 6.04199 4.50866 6.04199 4.16699V1.66699C6.04199 1.32533 6.32533 1.04199 6.66699 1.04199C7.00866 1.04199 7.29199 1.32533 7.29199 1.66699V4.16699C7.29199 4.50866 7.00866 4.79199 6.66699 4.79199Z" fill="white"/>
<path d="M13.333 4.79199C12.9913 4.79199 12.708 4.50866 12.708 4.16699V1.66699C12.708 1.32533 12.9913 1.04199 13.333 1.04199C13.6747 1.04199 13.958 1.32533 13.958 1.66699V4.16699C13.958 4.50866 13.6747 4.79199 13.333 4.79199Z" fill="white"/>
<path d="M7.08333 12.083C6.86667 12.083 6.64999 11.9913 6.49166 11.8413C6.45833 11.7997 6.41667 11.758 6.39167 11.7163C6.35833 11.6663 6.33333 11.6163 6.31667 11.5663C6.29167 11.5163 6.275 11.4663 6.26667 11.4163C6.25834 11.358 6.25 11.2997 6.25 11.2497C6.25 11.033 6.34166 10.8163 6.49166 10.658C6.79999 10.3497 7.35834 10.3497 7.67501 10.658C7.82501 10.8163 7.91667 11.033 7.91667 11.2497C7.91667 11.2997 7.90833 11.358 7.9 11.4163C7.89166 11.4663 7.875 11.5163 7.85 11.5663C7.83333 11.6163 7.80834 11.6663 7.775 11.7163C7.74167 11.758 7.70834 11.7997 7.67501 11.8413C7.51667 11.9913 7.3 12.083 7.08333 12.083Z" fill="white"/>
<path d="M10.0003 12.0837C9.89199 12.0837 9.78365 12.0587 9.68365 12.0171C9.57532 11.9754 9.48365 11.917 9.40865 11.842C9.37532 11.8004 9.33366 11.7587 9.30866 11.717C9.27532 11.667 9.25033 11.6171 9.23366 11.5671C9.20866 11.5171 9.192 11.4671 9.18366 11.4171C9.17533 11.3587 9.16699 11.3004 9.16699 11.2504C9.16699 11.0337 9.25865 10.8171 9.40865 10.6587C9.48365 10.5837 9.57532 10.5254 9.68365 10.4837C9.98365 10.3504 10.3587 10.4254 10.592 10.6587C10.742 10.8171 10.8337 11.0337 10.8337 11.2504C10.8337 11.3004 10.8253 11.3587 10.817 11.4171C10.8087 11.4671 10.792 11.5171 10.767 11.5671C10.7503 11.6171 10.7253 11.667 10.692 11.717C10.6587 11.7587 10.6253 11.8004 10.592 11.842C10.4337 11.992 10.217 12.0837 10.0003 12.0837Z" fill="white"/>
<path d="M7.08333 14.9997C6.85833 14.9997 6.64999 14.908 6.49166 14.758C6.34166 14.5997 6.25 14.383 6.25 14.1664C6.25 13.9497 6.34166 13.733 6.49166 13.5747C6.53333 13.5414 6.575 13.4997 6.61667 13.4747C6.66667 13.4414 6.71666 13.4163 6.76666 13.3997C6.81666 13.3747 6.86667 13.358 6.91667 13.3497C7.08334 13.3163 7.25 13.333 7.4 13.3997C7.50834 13.4413 7.59167 13.4997 7.67501 13.5747C7.82501 13.733 7.91667 13.9497 7.91667 14.1664C7.91667 14.383 7.82501 14.5997 7.67501 14.758C7.59167 14.833 7.50834 14.8914 7.4 14.933C7.3 14.9747 7.19167 14.9997 7.08333 14.9997Z" fill="white"/>
<path d="M17.0837 8.2002H2.91699C2.57533 8.2002 2.29199 7.91686 2.29199 7.5752C2.29199 7.23353 2.57533 6.9502 2.91699 6.9502H17.0837C17.4253 6.9502 17.7087 7.23353 17.7087 7.5752C17.7087 7.91686 17.4253 8.2002 17.0837 8.2002Z" fill="white"/>
<path d="M15.0003 19.7917C12.817 19.7917 11.042 18.0167 11.042 15.8333C11.042 13.65 12.817 11.875 15.0003 11.875C17.1837 11.875 18.9587 13.65 18.9587 15.8333C18.9587 18.0167 17.1837 19.7917 15.0003 19.7917ZM15.0003 13.125C13.5087 13.125 12.292 14.3417 12.292 15.8333C12.292 17.325 13.5087 18.5417 15.0003 18.5417C16.492 18.5417 17.7087 17.325 17.7087 15.8333C17.7087 14.3417 16.492 13.125 15.0003 13.125Z" fill="white"/>
<path d="M15.892 17.3832C15.7337 17.3832 15.5753 17.3249 15.4503 17.1999L13.692 15.4415C13.4503 15.1999 13.4503 14.7999 13.692 14.5582C13.9337 14.3165 14.3337 14.3165 14.5753 14.5582L16.3337 16.3165C16.5753 16.5582 16.5753 16.9582 16.3337 17.1999C16.2087 17.3249 16.0503 17.3832 15.892 17.3832Z" fill="white"/>
<path d="M14.1083 17.4086C13.9499 17.4086 13.7916 17.3503 13.6666 17.2253C13.4249 16.9836 13.4249 16.5836 13.6666 16.3419L15.4249 14.5836C15.6666 14.3419 16.0666 14.3419 16.3083 14.5836C16.5499 14.8253 16.5499 15.2253 16.3083 15.4669L14.5499 17.2253C14.4249 17.3419 14.2666 17.4086 14.1083 17.4086Z" fill="white"/>
<path d="M12.8083 18.9587H6.66667C3.625 18.9587 1.875 17.2087 1.875 14.167V7.08366C1.875 4.04199 3.625 2.29199 6.66667 2.29199H13.3333C16.375 2.29199 18.125 4.04199 18.125 7.08366V13.6336C18.125 13.892 17.9667 14.1253 17.7167 14.217C17.475 14.3087 17.2 14.242 17.025 14.042C16.5083 13.4587 15.7667 13.1253 14.9917 13.1253C13.5 13.1253 12.2833 14.342 12.2833 15.8337C12.2833 16.3253 12.4167 16.8087 12.675 17.2253C12.8167 17.4753 13 17.6837 13.2 17.8587C13.4 18.0253 13.475 18.3003 13.3833 18.5503C13.3083 18.792 13.075 18.9587 12.8083 18.9587ZM6.66667 3.54199C4.28333 3.54199 3.125 4.70033 3.125 7.08366V14.167C3.125 16.5503 4.28333 17.7087 6.66667 17.7087H11.5167C11.2083 17.142 11.0417 16.5003 11.0417 15.8337C11.0417 13.6503 12.8167 11.8753 15 11.8753C15.6583 11.8753 16.3083 12.042 16.875 12.3503V7.08366C16.875 4.70033 15.7167 3.54199 13.3333 3.54199H6.66667Z" fill="white"/>
</svg>
