<svg width="24" height="25" viewBox="0 0 24 25" fill="none" xmlns="http://www.w3.org/2000/svg">
<path d="M9 17.9907C8.9 17.9907 8.81 17.9707 8.71 17.9307C8.43 17.8207 8.25 17.5407 8.25 17.2407V11.2407C8.25 10.8307 8.59 10.4907 9 10.4907C9.41 10.4907 9.75 10.8307 9.75 11.2407V15.4307L10.47 14.7107C10.76 14.4207 11.24 14.4207 11.53 14.7107C11.82 15.0007 11.82 15.4807 11.53 15.7707L9.53 17.7707C9.39 17.9107 9.19 17.9907 9 17.9907Z" fill="#45445F"/>
<path d="M9.00043 17.9907C8.81043 17.9907 8.62043 17.9207 8.47043 17.7707L6.47043 15.7707C6.18043 15.4807 6.18043 15.0007 6.47043 14.7107C6.76043 14.4207 7.24043 14.4207 7.53043 14.7107L9.53043 16.7107C9.82043 17.0007 9.82043 17.4807 9.53043 17.7707C9.38043 17.9207 9.19043 17.9907 9.00043 17.9907Z" fill="#45445F"/>
<path d="M15 22.9907H9C3.57 22.9907 1.25 20.6707 1.25 15.2407V9.24072C1.25 3.81072 3.57 1.49072 9 1.49072H14C14.41 1.49072 14.75 1.83072 14.75 2.24072C14.75 2.65072 14.41 2.99072 14 2.99072H9C4.39 2.99072 2.75 4.63072 2.75 9.24072V15.2407C2.75 19.8507 4.39 21.4907 9 21.4907H15C19.61 21.4907 21.25 19.8507 21.25 15.2407V10.2407C21.25 9.83072 21.59 9.49072 22 9.49072C22.41 9.49072 22.75 9.83072 22.75 10.2407V15.2407C22.75 20.6707 20.43 22.9907 15 22.9907Z" fill="#45445F"/>
<path d="M22 10.9907H18C14.58 10.9907 13.25 9.66071 13.25 6.24071V2.24071C13.25 1.94071 13.43 1.66071 13.71 1.55071C13.99 1.43071 14.31 1.50071 14.53 1.71071L22.53 9.71071C22.74 9.92071 22.81 10.2507 22.69 10.5307C22.57 10.8107 22.3 10.9907 22 10.9907ZM14.75 4.05071V6.24071C14.75 8.82071 15.42 9.49071 18 9.49071H20.19L14.75 4.05071Z" fill="#45445F"/>
</svg>
