<svg width="20" height="20" viewBox="0 0 20 20" fill="none" xmlns="http://www.w3.org/2000/svg">
<path d="M14.7829 18.9585H6.36627C6.10794 18.9585 5.87461 18.8002 5.78294 18.5502C5.69127 18.3002 5.75793 18.0335 5.95793 17.8585C6.54127 17.3419 6.88294 16.6002 6.88294 15.8252C6.88294 14.3335 5.66627 13.1169 4.1746 13.1169C3.55793 13.1169 2.9746 13.3252 2.48294 13.7169C2.29127 13.8669 2.04127 13.8919 1.82461 13.7919C1.60794 13.6919 1.47461 13.4669 1.47461 13.2252V9.58354C1.47461 7.50854 3.15794 5.8252 5.23294 5.8252H14.7996C16.8746 5.8252 18.5579 7.50854 18.5579 9.58354V10.7835C18.5579 11.1252 18.2746 11.4085 17.9329 11.4085H16.2496C15.9579 11.4085 15.6913 11.5169 15.4996 11.7169L15.4913 11.7252C15.2579 11.9502 15.1496 12.2586 15.1746 12.5752C15.2246 13.1252 15.7496 13.5669 16.3496 13.5669H17.9329C18.2746 13.5669 18.5579 13.8502 18.5579 14.1919V15.1835C18.5413 17.2752 16.8579 18.9585 14.7829 18.9585ZM7.6496 17.7085H14.7829C16.1663 17.7085 17.2913 16.5835 17.2913 15.2002V14.8335H16.3329C15.0746 14.8335 14.0079 13.9002 13.9079 12.7002C13.8413 12.0169 14.0913 11.3419 14.5913 10.8502C15.0246 10.4086 15.6079 10.1669 16.2329 10.1669H17.2913V9.59188C17.2913 8.20854 16.1663 7.08354 14.7829 7.08354H5.21627C3.83293 7.08354 2.70794 8.20854 2.70794 9.59188V12.1586C3.17461 11.9752 3.66627 11.8752 4.16627 11.8752C6.34961 11.8752 8.12461 13.6502 8.12461 15.8335C8.12461 16.4919 7.95793 17.1419 7.6496 17.7085Z" fill="white"/>
<path d="M2.08301 10.2166C1.74134 10.2166 1.45801 9.93329 1.45801 9.59162V6.5333C1.45801 5.29163 2.23301 4.15825 3.39135 3.72492L10.008 1.22492C10.6913 0.974921 11.458 1.06664 12.0497 1.4833C12.6413 1.89997 12.9997 2.57496 12.9997 3.29162V6.45828C12.9997 6.79995 12.7163 7.08328 12.3747 7.08328C12.033 7.08328 11.7497 6.79995 11.7497 6.45828V3.29162C11.7497 2.97496 11.5997 2.69162 11.3413 2.50829C11.0747 2.32495 10.7497 2.28327 10.4497 2.39161L3.83301 4.89161C3.14968 5.14994 2.70801 5.79163 2.70801 6.5333V9.59162C2.70801 9.93329 2.42467 10.2166 2.08301 10.2166Z" fill="white"/>
<path d="M16.3331 14.8336C15.0747 14.8336 14.0081 13.9003 13.9081 12.7003C13.8414 12.0086 14.0914 11.3337 14.5914 10.842C15.0164 10.4087 15.5997 10.167 16.2247 10.167H17.9581C18.7831 10.192 19.4164 10.842 19.4164 11.642V13.3587C19.4164 14.1587 18.7831 14.8086 17.9831 14.8336H16.3331ZM17.9414 11.417H16.2331C15.9414 11.417 15.6747 11.5253 15.4831 11.7253C15.2414 11.9587 15.1247 12.2753 15.1581 12.592C15.2081 13.142 15.7331 13.5836 16.3331 13.5836H17.9664C18.0747 13.5836 18.1747 13.4837 18.1747 13.3587V11.642C18.1747 11.517 18.0747 11.4253 17.9414 11.417Z" fill="white"/>
<path d="M11.6663 10.625H5.83301C5.49134 10.625 5.20801 10.3417 5.20801 10C5.20801 9.65833 5.49134 9.375 5.83301 9.375H11.6663C12.008 9.375 12.2913 9.65833 12.2913 10C12.2913 10.3417 12.008 10.625 11.6663 10.625Z" fill="white"/>
<path d="M4.16634 19.7917C1.98301 19.7917 0.208008 18.0167 0.208008 15.8333C0.208008 14.6167 0.749673 13.4916 1.69134 12.7416C2.39134 12.1833 3.27467 11.875 4.16634 11.875C6.34967 11.875 8.12467 13.65 8.12467 15.8333C8.12467 16.9667 7.63301 18.05 6.78301 18.8C6.04967 19.4417 5.12467 19.7917 4.16634 19.7917ZM4.16634 13.125C3.54967 13.125 2.96634 13.3333 2.47468 13.725C1.83301 14.2333 1.45801 15.0083 1.45801 15.8333C1.45801 17.325 2.67467 18.5417 4.16634 18.5417C4.81634 18.5417 5.44967 18.3 5.958 17.8667C6.54134 17.35 6.87467 16.6167 6.87467 15.8333C6.87467 14.3417 5.65801 13.125 4.16634 13.125Z" fill="white"/>
<path d="M3.33356 17.292C3.12523 17.292 2.9169 17.1837 2.80023 16.992C2.62523 16.692 2.71689 16.3086 3.01689 16.1336L3.75856 15.692V14.792C3.75856 14.4503 4.04189 14.167 4.38356 14.167C4.72522 14.167 5.00856 14.4503 5.00856 14.792V16.042C5.00856 16.2587 4.89189 16.467 4.70856 16.5753L3.66689 17.2003C3.55856 17.267 3.44189 17.292 3.33356 17.292Z" fill="white"/>
</svg>
