<svg width="1em" height="1em" viewBox="0 0 22 20" fill="none" xmlns="http://www.w3.org/2000/svg">
<path fill-rule="evenodd" clip-rule="evenodd" d="M14.5788 0.000168074C15.243 0.000168074 15.9062 0.0938515 16.5367 0.305429C20.4219 1.56858 21.8219 5.8317 20.6525 9.55798C19.9893 11.4622 18.9051 13.2001 17.4851 14.62C15.4525 16.5884 13.222 18.3358 10.821 19.8411L10.5578 20L10.2841 19.8305C7.87469 18.3358 5.63155 16.5884 3.57999 14.6095C2.16947 13.1895 1.08422 11.4622 0.41054 9.55798C-0.778923 5.8317 0.621065 1.56858 4.5484 0.283324C4.85366 0.178061 5.1684 0.104378 5.48418 0.0633254H5.6105C5.90628 0.0201679 6.19997 0.000168074 6.4947 0.000168074H6.61049C7.27364 0.0201679 7.91574 0.135956 8.53784 0.347534H8.59994C8.64205 0.367533 8.67363 0.389638 8.69468 0.409638C8.92731 0.484375 9.14731 0.568584 9.35783 0.684373L9.75783 0.863319C9.85448 0.914868 9.96297 0.993635 10.0567 1.06171C10.1161 1.10484 10.1696 1.14368 10.2105 1.16858C10.2276 1.17872 10.2451 1.18891 10.2627 1.19918C10.353 1.25187 10.447 1.30675 10.5262 1.36752C11.6957 0.473848 13.1157 -0.0103582 14.5788 0.000168074ZM17.3788 7.57931C17.8104 7.56773 18.1788 7.22141 18.2104 6.77826V6.653C18.242 5.17827 17.3483 3.84249 15.9894 3.32671C15.5578 3.17829 15.0841 3.41092 14.9262 3.85302C14.7789 4.29512 15.0104 4.77933 15.4525 4.93617C16.1273 5.1888 16.5788 5.853 16.5788 6.58879V6.62142C16.5588 6.86247 16.6315 7.0951 16.7788 7.27404C16.9262 7.45299 17.1473 7.5572 17.3788 7.57931Z" fill="currentColor"/>
</svg>
