<svg width="1em" height="1em" viewBox="0 0 24 22" fill="none" xmlns="http://www.w3.org/2000/svg">
<path d="M22.8089 4.42621C21.9081 2.67147 20.3889 1.43346 18.4247 0.841365C17.2744 0.496875 16.0264 0.410752 14.8327 0.593763C13.8235 0.755242 12.8576 1.1105 11.9895 1.62723C11.1322 1.1105 10.1555 0.755242 9.14627 0.593763C7.95256 0.410752 6.71544 0.496875 5.55428 0.841365C3.59008 1.43346 2.08166 2.67147 1.18095 4.42621C0.20428 6.32091 0.0632053 8.65698 0.801137 10.8423C1.51736 12.8016 2.72193 14.6102 4.28461 16.0743C6.41159 18.0228 8.77731 19.756 11.3058 21.2309H11.3167L11.5988 21.3923C11.7182 21.4677 11.8593 21.5 12.0003 21.5C12.1414 21.5 12.2825 21.4677 12.4127 21.3923L12.684 21.2416C15.2125 19.7776 17.5782 18.0443 19.7161 16.085C21.2679 14.621 22.4724 12.8124 23.1995 10.8423C23.9375 8.65698 23.7964 6.33167 22.8089 4.42621ZM21.6586 10.2825C21.0291 12.005 19.9657 13.5983 18.5983 14.8901C16.5907 16.731 14.3769 18.3673 12.0003 19.756C9.62376 18.3673 7.40996 16.731 5.40236 14.9009C4.02416 13.609 2.97152 12.0158 2.34211 10.3041C1.74525 8.53856 1.85377 6.6654 2.63511 5.15826C3.32964 3.81259 4.5125 2.85448 6.04262 2.3808C6.63948 2.20856 7.26889 2.11167 7.8983 2.11167C8.23471 2.11167 8.57112 2.1332 8.89668 2.18703C9.85165 2.33774 10.7524 2.70376 11.5228 3.25279C11.805 3.45734 12.1848 3.45734 12.467 3.25279C13.2375 2.71453 14.149 2.33774 15.0931 2.18703C16.0481 2.03631 17.0356 2.10091 17.9472 2.3808C19.4773 2.84371 20.6602 3.81259 21.3547 5.15826C22.1469 6.67616 22.2554 8.54933 21.6586 10.2825Z" fill="currentColor"/>
<path d="M16.5146 4.88872C16.0913 4.75954 15.6247 4.99638 15.4945 5.42699C15.3643 5.8576 15.603 6.30974 16.0371 6.43893C16.482 6.57888 16.8727 6.82648 17.1657 7.17097C17.4478 7.50469 17.6215 7.91378 17.654 8.33362C17.6866 8.75347 18.0447 9.07643 18.4679 9.07643C18.4896 9.07643 18.5113 9.07643 18.533 9.07643C18.9779 9.04413 19.3144 8.64582 19.2709 8.20444C19.2058 7.45087 18.9128 6.72959 18.4136 6.1375C17.9145 5.55617 17.2633 5.12556 16.5146 4.88872Z" fill="currentColor"/>
</svg>
