<svg width="1em" height="1em" viewBox="0 0 18 18" fill="none" xmlns="http://www.w3.org/2000/svg">
<path fill-rule="evenodd" clip-rule="evenodd" d="M9 18C13.9706 18 18 13.9706 18 9C18 4.02944 13.9706 0 9 0C4.02944 0 0 4.02944 0 9C0 13.9706 4.02944 18 9 18ZM10.047 7.41138L7.46965 7.73438L7.37736 8.16284L7.88493 8.25513C8.21452 8.33423 8.28044 8.45288 8.20793 8.78247L7.37736 12.6848C7.15983 13.6934 7.49602 14.168 8.28703 14.168C8.90007 14.168 9.61198 13.8845 9.93498 13.4956L10.0339 13.0276C9.80974 13.2253 9.48015 13.3044 9.26262 13.3044C8.9528 13.3044 8.84074 13.0869 8.91984 12.7046L10.047 7.41138ZM9 6.1875C9.62132 6.1875 10.125 5.68382 10.125 5.0625C10.125 4.44118 9.62132 3.9375 9 3.9375C8.37868 3.9375 7.875 4.44118 7.875 5.0625C7.875 5.68382 8.37868 6.1875 9 6.1875Z" fill="currentColor"/>
</svg>
