<svg width="16" height="16" viewBox="0 0 16 16" fill="none" xmlns="http://www.w3.org/2000/svg">
<path d="M12 7.16732C11.7267 7.16732 11.5 6.94065 11.5 6.66732V5.33398C11.5 3.23398 10.9067 1.83398 8 1.83398C5.09333 1.83398 4.5 3.23398 4.5 5.33398V6.66732C4.5 6.94065 4.27333 7.16732 4 7.16732C3.72667 7.16732 3.5 6.94065 3.5 6.66732V5.33398C3.5 3.40065 3.96667 0.833984 8 0.833984C12.0333 0.833984 12.5 3.40065 12.5 5.33398V6.66732C12.5 6.94065 12.2733 7.16732 12 7.16732Z" fill="#45445F"/>
<path d="M7.99967 12.8333C6.80634 12.8333 5.83301 11.86 5.83301 10.6667C5.83301 9.47333 6.80634 8.5 7.99967 8.5C9.19301 8.5 10.1663 9.47333 10.1663 10.6667C10.1663 11.86 9.19301 12.8333 7.99967 12.8333ZM7.99967 9.5C7.35967 9.5 6.83301 10.0267 6.83301 10.6667C6.83301 11.3067 7.35967 11.8333 7.99967 11.8333C8.63967 11.8333 9.16634 11.3067 9.16634 10.6667C9.16634 10.0267 8.63967 9.5 7.99967 9.5Z" fill="#45445F"/>
<path d="M11.333 15.166H4.66634C1.72634 15.166 0.833008 14.2727 0.833008 11.3327V9.99935C0.833008 7.05935 1.72634 6.16602 4.66634 6.16602H11.333C14.273 6.16602 15.1663 7.05935 15.1663 9.99935V11.3327C15.1663 14.2727 14.273 15.166 11.333 15.166ZM4.66634 7.16602C2.27967 7.16602 1.83301 7.61935 1.83301 9.99935V11.3327C1.83301 13.7127 2.27967 14.166 4.66634 14.166H11.333C13.7197 14.166 14.1663 13.7127 14.1663 11.3327V9.99935C14.1663 7.61935 13.7197 7.16602 11.333 7.16602H4.66634Z" fill="#45445F"/>
</svg>
