<svg width="20" height="20" viewBox="0 0 20 20" fill="none" xmlns="http://www.w3.org/2000/svg">
<path d="M13.3331 18.5999C13.0498 18.5999 12.7748 18.5166 12.5331 18.3582L8.98313 15.9915H7.40814C7.21648 15.9915 7.03312 15.8999 6.91645 15.7499C6.79979 15.5916 6.75814 15.3915 6.80814 15.2082C6.85814 15.0082 6.88314 14.8082 6.88314 14.5915C6.88314 13.9249 6.63314 13.2832 6.18314 12.7832C5.67481 12.2082 4.9498 11.8832 4.1748 11.8832C3.43314 11.8832 2.74979 12.1749 2.23312 12.6999C2.07479 12.8665 1.83313 12.9249 1.61647 12.8665C1.3998 12.7999 1.2248 12.6249 1.1748 12.3999C1.09147 12.0332 1.0498 11.6332 1.0498 11.1999V6.19987C1.0498 3.3332 2.9748 1.4082 5.84147 1.4082H14.1748C17.0415 1.4082 18.9665 3.3332 18.9665 6.19987V11.1999C18.9665 12.5915 18.5081 13.7915 17.6331 14.6665C16.8998 15.3998 15.9248 15.8416 14.7998 15.9582V17.1415C14.7998 17.6832 14.4998 18.1749 14.0248 18.4332C13.7998 18.5415 13.5665 18.5999 13.3331 18.5999ZM8.1248 14.7332H9.16646C9.29146 14.7332 9.40814 14.7665 9.51647 14.8415L13.2248 17.3166C13.3165 17.3749 13.3915 17.3498 13.4331 17.3248C13.4748 17.2998 13.5498 17.2499 13.5498 17.1332V15.3582C13.5498 15.0165 13.8331 14.7332 14.1748 14.7332C15.2331 14.7332 16.1248 14.3999 16.7498 13.7749C17.3831 13.1416 17.7165 12.2499 17.7165 11.1915V6.19153C17.7165 4.04153 16.3248 2.64986 14.1748 2.64986H5.84147C3.69147 2.64986 2.2998 4.04153 2.2998 6.19153V11.0915C2.86647 10.7832 3.50814 10.6249 4.1748 10.6249C5.30814 10.6249 6.38314 11.1082 7.11647 11.9415C7.76647 12.6665 8.13314 13.5999 8.13314 14.5832C8.1248 14.6332 8.1248 14.6832 8.1248 14.7332Z" fill="white"/>
<path d="M4.16634 18.5417C1.98301 18.5417 0.208008 16.7667 0.208008 14.5833C0.208008 13.3667 0.749673 12.2416 1.69134 11.4916C2.39134 10.9333 3.27467 10.625 4.16634 10.625C6.34967 10.625 8.12467 12.4 8.12467 14.5833C8.12467 15.7167 7.63301 16.8 6.77468 17.55C6.04968 18.1917 5.12467 18.5417 4.16634 18.5417ZM4.16634 11.875C3.54967 11.875 2.96634 12.0833 2.47468 12.475C1.83301 12.9833 1.45801 13.7583 1.45801 14.5833C1.45801 16.075 2.67467 17.2917 4.16634 17.2917C4.81634 17.2917 5.44967 17.05 5.958 16.6167C6.54134 16.1 6.87467 15.3667 6.87467 14.5833C6.87467 13.0917 5.65801 11.875 4.16634 11.875Z" fill="white"/>
<path d="M3.33357 16.042C3.12524 16.042 2.91689 15.9337 2.80023 15.742C2.62523 15.442 2.7169 15.0586 3.0169 14.8836L3.75858 14.442V13.542C3.75858 13.2003 4.04191 12.917 4.38358 12.917C4.72525 12.917 5.00858 13.2003 5.00858 13.542V14.792C5.00858 15.0087 4.8919 15.217 4.70857 15.3253L3.6669 15.9503C3.55023 16.017 3.4419 16.042 3.33357 16.042Z" fill="white"/>
<path d="M12.9163 9.375H7.08301C6.74134 9.375 6.45801 9.09167 6.45801 8.75C6.45801 8.40833 6.74134 8.125 7.08301 8.125H12.9163C13.258 8.125 13.5413 8.40833 13.5413 8.75C13.5413 9.09167 13.258 9.375 12.9163 9.375Z" fill="white"/>
</svg>
