<svg width="20" height="20" viewBox="0 0 20 20" fill="none" xmlns="http://www.w3.org/2000/svg">
<path d="M10.0003 19.0087C9.42533 19.0087 8.88366 18.717 8.50033 18.2087L7.25033 16.542C7.22533 16.5087 7.12533 16.4587 7.07533 16.4587H6.66699C3.19199 16.4587 1.04199 15.517 1.04199 10.8337V6.66699C1.04199 2.98366 2.98366 1.04199 6.66699 1.04199H11.667C12.0087 1.04199 12.292 1.32533 12.292 1.66699C12.292 2.00866 12.0087 2.29199 11.667 2.29199H6.66699C3.68366 2.29199 2.29199 3.68366 2.29199 6.66699V10.8337C2.29199 14.6003 3.58366 15.2087 6.66699 15.2087H7.08366C7.50866 15.2087 7.99199 15.4503 8.25033 15.792L9.50033 17.4587C9.79199 17.842 10.2087 17.842 10.5003 17.4587L11.7503 15.792C12.0253 15.4253 12.4587 15.2087 12.917 15.2087H13.3337C16.317 15.2087 17.7087 13.817 17.7087 10.8337V8.33366C17.7087 7.99199 17.992 7.70866 18.3337 7.70866C18.6753 7.70866 18.9587 7.99199 18.9587 8.33366V10.8337C18.9587 14.517 17.017 16.4587 13.3337 16.4587H12.917C12.8503 16.4587 12.792 16.492 12.7503 16.542L11.5003 18.2087C11.117 18.717 10.5753 19.0087 10.0003 19.0087Z" fill="white"/>
<path d="M10.0003 9.99967C9.53366 9.99967 9.16699 9.62467 9.16699 9.16634C9.16699 8.70801 9.54199 8.33301 10.0003 8.33301C10.4587 8.33301 10.8337 8.70801 10.8337 9.16634C10.8337 9.62467 10.467 9.99967 10.0003 9.99967Z" fill="white"/>
<path d="M13.3333 9.99967C12.8667 9.99967 12.5 9.62467 12.5 9.16634C12.5 8.70801 12.875 8.33301 13.3333 8.33301C13.7917 8.33301 14.1667 8.70801 14.1667 9.16634C14.1667 9.62467 13.8 9.99967 13.3333 9.99967Z" fill="white"/>
<path d="M6.66634 9.99967C6.19967 9.99967 5.83301 9.62467 5.83301 9.16634C5.83301 8.70801 6.20801 8.33301 6.66634 8.33301C7.12467 8.33301 7.49967 8.70801 7.49967 9.16634C7.49967 9.62467 7.13301 9.99967 6.66634 9.99967Z" fill="white"/>
<path d="M16.2503 6.45866C14.7587 6.45866 13.542 5.24199 13.542 3.75033C13.542 2.25866 14.7587 1.04199 16.2503 1.04199C17.742 1.04199 18.9587 2.25866 18.9587 3.75033C18.9587 5.24199 17.742 6.45866 16.2503 6.45866ZM16.2503 2.29199C15.4503 2.29199 14.792 2.95033 14.792 3.75033C14.792 4.55033 15.4503 5.20866 16.2503 5.20866C17.0503 5.20866 17.7087 4.55033 17.7087 3.75033C17.7087 2.95033 17.0503 2.29199 16.2503 2.29199Z" fill="white"/>
</svg>
