<svg width="20" height="20" viewBox="0 0 20 20" fill="none" xmlns="http://www.w3.org/2000/svg">
<path d="M13.3337 18.9587H2.50033C1.70033 18.9587 1.04199 18.3003 1.04199 17.5003V6.66699C1.04199 2.98366 2.98366 1.04199 6.66699 1.04199H13.3337C17.017 1.04199 18.9587 2.98366 18.9587 6.66699V13.3337C18.9587 17.017 17.017 18.9587 13.3337 18.9587ZM6.66699 2.29199C3.68366 2.29199 2.29199 3.68366 2.29199 6.66699V17.5003C2.29199 17.617 2.38366 17.7087 2.50033 17.7087H13.3337C16.317 17.7087 17.7087 16.317 17.7087 13.3337V6.66699C17.7087 3.68366 16.317 2.29199 13.3337 2.29199H6.66699Z" fill="white"/>
<path d="M14.1663 8.54199H5.83301C5.49134 8.54199 5.20801 8.25866 5.20801 7.91699C5.20801 7.57533 5.49134 7.29199 5.83301 7.29199H14.1663C14.508 7.29199 14.7913 7.57533 14.7913 7.91699C14.7913 8.25866 14.508 8.54199 14.1663 8.54199Z" fill="white"/>
<path d="M11.6663 12.708H5.83301C5.49134 12.708 5.20801 12.4247 5.20801 12.083C5.20801 11.7413 5.49134 11.458 5.83301 11.458H11.6663C12.008 11.458 12.2913 11.7413 12.2913 12.083C12.2913 12.4247 12.008 12.708 11.6663 12.708Z" fill="white"/>
</svg>
