<svg width="20" height="20" viewBox="0 0 20 20" fill="none" xmlns="http://www.w3.org/2000/svg">
<path d="M12.4997 18.9587H7.49967C3.82467 18.9587 2.70801 17.842 2.70801 14.167V5.83366C2.70801 2.15866 3.82467 1.04199 7.49967 1.04199H12.4997C16.1747 1.04199 17.2913 2.15866 17.2913 5.83366V14.167C17.2913 17.842 16.1747 18.9587 12.4997 18.9587ZM7.49967 2.29199C4.51634 2.29199 3.95801 2.85866 3.95801 5.83366V14.167C3.95801 17.142 4.51634 17.7087 7.49967 17.7087H12.4997C15.483 17.7087 16.0413 17.142 16.0413 14.167V5.83366C16.0413 2.85866 15.483 2.29199 12.4997 2.29199H7.49967Z" fill="white"/>
<path d="M11.6663 5.20801H8.33301C7.99134 5.20801 7.70801 4.92467 7.70801 4.58301C7.70801 4.24134 7.99134 3.95801 8.33301 3.95801H11.6663C12.008 3.95801 12.2913 4.24134 12.2913 4.58301C12.2913 4.92467 12.008 5.20801 11.6663 5.20801Z" fill="white"/>
<path d="M9.99967 16.5501C8.94134 16.5501 8.08301 15.6918 8.08301 14.6335C8.08301 13.5751 8.94134 12.7168 9.99967 12.7168C11.058 12.7168 11.9163 13.5751 11.9163 14.6335C11.9163 15.6918 11.058 16.5501 9.99967 16.5501ZM9.99967 13.9585C9.63301 13.9585 9.33301 14.2585 9.33301 14.6251C9.33301 14.9918 9.63301 15.2918 9.99967 15.2918C10.3663 15.2918 10.6663 14.9918 10.6663 14.6251C10.6663 14.2585 10.3663 13.9585 9.99967 13.9585Z" fill="white"/>
</svg>
