<svg width="20" height="20" viewBox="0 0 20 20" fill="none" xmlns="http://www.w3.org/2000/svg">
<path d="M6.66699 4.79199C6.32533 4.79199 6.04199 4.50866 6.04199 4.16699V1.66699C6.04199 1.32533 6.32533 1.04199 6.66699 1.04199C7.00866 1.04199 7.29199 1.32533 7.29199 1.66699V4.16699C7.29199 4.50866 7.00866 4.79199 6.66699 4.79199Z" fill="white"/>
<path d="M13.333 4.79199C12.9913 4.79199 12.708 4.50866 12.708 4.16699V1.66699C12.708 1.32533 12.9913 1.04199 13.333 1.04199C13.6747 1.04199 13.958 1.32533 13.958 1.66699V4.16699C13.958 4.50866 13.6747 4.79199 13.333 4.79199Z" fill="white"/>
<path d="M12.4997 11.458H5.83301C5.49134 11.458 5.20801 11.1747 5.20801 10.833C5.20801 10.4913 5.49134 10.208 5.83301 10.208H12.4997C12.8413 10.208 13.1247 10.4913 13.1247 10.833C13.1247 11.1747 12.8413 11.458 12.4997 11.458Z" fill="white"/>
<path d="M9.99967 14.792H5.83301C5.49134 14.792 5.20801 14.5087 5.20801 14.167C5.20801 13.8253 5.49134 13.542 5.83301 13.542H9.99967C10.3413 13.542 10.6247 13.8253 10.6247 14.167C10.6247 14.5087 10.3413 14.792 9.99967 14.792Z" fill="white"/>
<path d="M12.5 18.9587H7.5C2.81667 18.9587 1.875 16.7503 1.875 13.1837V8.04199C1.875 4.09199 3.20833 2.48366 6.63333 2.29199H13.3333C13.3417 2.29199 13.3583 2.29199 13.3667 2.29199C16.7917 2.48366 18.125 4.09199 18.125 8.04199V13.1837C18.125 16.7503 17.1833 18.9587 12.5 18.9587ZM6.66667 3.54199C4.33333 3.67533 3.125 4.40866 3.125 8.04199V13.1837C3.125 16.3753 3.73333 17.7087 7.5 17.7087H12.5C16.2667 17.7087 16.875 16.3753 16.875 13.1837V8.04199C16.875 4.41699 15.675 3.67533 13.3167 3.54199H6.66667Z" fill="white"/>
</svg>
