<svg width="1em" height="1em" viewBox="0 0 18 22" fill="none" xmlns="http://www.w3.org/2000/svg">
<path d="M3.34191 21.05C2.64646 20.9415 1.95932 20.7851 1.28541 20.582L0.749905 20.4028V18.9365C0.719167 17.3523 1.31875 15.8207 2.41686 14.6785C3.51497 13.5362 5.02173 12.8767 6.60591 12.845H11.6932C13.2775 12.8765 14.7844 13.5359 15.8827 14.6782C16.981 15.8205 17.5806 17.3522 17.5499 18.9365V20.4028L17.0144 20.5813C16.6567 20.6939 16.2935 20.788 15.9262 20.8633L15.4762 20.9555L14.9602 21.0485C13.0396 21.3625 11.0959 21.5135 9.14991 21.5C7.20469 21.5139 5.26178 21.3633 3.34191 21.05ZM4.14141 5.7095C4.11549 4.35472 4.62844 3.04506 5.56756 2.06825C6.50668 1.09144 7.79515 0.527381 9.14991 0.5C10.5047 0.527381 11.7931 1.09144 12.7323 2.06825C13.6714 3.04506 14.1843 4.35472 14.1584 5.7095C14.1584 8.717 11.8334 11.801 9.14991 11.801C6.46641 11.801 4.14141 8.71775 4.14141 5.7095Z" fill="currentColor"/>
</svg>
