<svg width="1em" height="1em" viewBox="0 0 16 15" fill="none" xmlns="http://www.w3.org/2000/svg">
<path d="M14.5811 3.59904C13.6823 2.04904 12.2841 0.899038 10.5363 0.349038C8.83854 -0.200962 6.99091 -0.100962 5.34303 0.649038C5.09335 0.749038 4.99348 1.04904 5.09335 1.29904C5.19323 1.54904 5.49284 1.64904 5.74252 1.54904C7.14072 0.899038 8.73866 0.849038 10.2367 1.29904C11.7348 1.74904 12.9333 2.74904 13.6823 4.09904C14.4313 5.39904 14.6311 6.94904 14.2815 8.44904C13.932 9.89904 12.9832 11.199 11.6849 12.049C10.3865 12.899 8.83854 13.199 7.29053 12.999C5.74252 12.749 4.39425 11.949 3.39554 10.749C2.4967 9.49904 2.04728 7.99904 2.14715 6.49904C2.24702 5.39904 2.6465 4.34904 3.29567 3.49904V5.29904C3.29567 5.59904 3.49541 5.79904 3.79503 5.79904C4.09464 5.79904 4.29438 5.59904 4.29438 5.29904V2.19904V2.14904C4.29438 2.09904 4.29438 2.09904 4.29438 2.04904C4.29438 1.99904 4.24445 1.99904 4.24445 1.94904C4.24445 1.94904 4.24445 1.89904 4.19451 1.89904C4.19451 1.84904 4.14458 1.84904 4.09464 1.84904C4.0447 1.79904 4.0447 1.74904 3.99477 1.74904H3.94483C3.8949 1.74904 3.84496 1.74904 3.84496 1.74904H0.998625C0.69901 1.74904 0.499268 1.94904 0.499268 2.24904C0.499268 2.54904 0.69901 2.74904 0.998625 2.74904H2.6465C1.7976 3.79904 1.29824 5.09904 1.14843 6.44904C0.998625 8.19904 1.54792 9.94904 2.6465 11.349C3.74509 12.749 5.34303 13.649 7.14072 13.949C7.54021 13.999 7.88976 14.049 8.28924 14.049C9.68744 14.049 11.0357 13.649 12.2342 12.899C13.7322 11.899 14.8308 10.449 15.2303 8.69904C15.7297 6.94904 15.48 5.14904 14.5811 3.59904Z" fill="currentColor"/>
</svg>
