<svg width="1em" height="1em" viewBox="0 0 24 24" fill="none" xmlns="http://www.w3.org/2000/svg">
<path d="M5.84046 3H18.8259C20.3923 3 21.6665 4.25084 21.6665 5.78853V14.5525C21.6665 16.0901 20.3923 17.341 18.8259 17.341H10.0664L6.12693 21.2082C6.04981 21.2839 5.94595 21.3246 5.84042 21.3246C5.78849 21.3246 5.73493 21.315 5.6854 21.2943C5.53364 21.2329 5.43461 21.0871 5.43461 20.9262V17.3123C4.05976 17.1187 2.99984 15.9547 2.99984 14.5524V5.78853C2.99987 4.25084 4.2741 3 5.84046 3ZM12.3332 14.9508C13.0044 14.9508 13.5506 14.4146 13.5506 13.7557C13.5506 13.0968 13.0044 12.5606 12.3332 12.5606C11.662 12.5606 11.1158 13.0968 11.1158 13.7557C11.1158 14.4146 11.662 14.9508 12.3332 14.9508ZM10.7132 6.67129L11.0631 10.6087C11.1093 11.2532 11.6685 11.7639 12.3332 11.7639C13.0052 11.7639 13.5636 11.2532 13.6098 10.6015L13.9523 6.67607C13.9767 6.34144 13.8598 6.01321 13.6309 5.7718C13.4004 5.52879 13.0758 5.39016 12.739 5.39016H11.9274C11.5906 5.39016 11.2659 5.52879 11.0355 5.7718C10.8066 6.01399 10.6889 6.34144 10.7132 6.67129Z" fill="currentColor"/>
</svg>
