<svg width="16" height="16" viewBox="0 0 16 16" fill="none" xmlns="http://www.w3.org/2000/svg">
<path d="M11.333 14.1673H4.66634C2.23301 14.1673 0.833008 12.7673 0.833008 10.334V5.66732C0.833008 3.23398 2.23301 1.83398 4.66634 1.83398H11.333C13.7663 1.83398 15.1663 3.23398 15.1663 5.66732V10.334C15.1663 12.7673 13.7663 14.1673 11.333 14.1673ZM4.66634 2.83398C2.75967 2.83398 1.83301 3.76065 1.83301 5.66732V10.334C1.83301 12.2407 2.75967 13.1673 4.66634 13.1673H11.333C13.2397 13.1673 14.1663 12.2407 14.1663 10.334V5.66732C14.1663 3.76065 13.2397 2.83398 11.333 2.83398H4.66634Z" fill="#45445F"/>
<path d="M8.00018 8.57998C7.44018 8.57998 6.87351 8.40665 6.44018 8.05331L4.35351 6.38665C4.14018 6.21331 4.10018 5.89998 4.27351 5.68665C4.44685 5.47331 4.76018 5.43332 4.97352 5.60665L7.06017 7.27332C7.56684 7.67998 8.42684 7.67998 8.93351 7.27332L11.0202 5.60665C11.2335 5.43332 11.5535 5.46665 11.7202 5.68665C11.8935 5.89998 11.8602 6.21998 11.6402 6.38665L9.55351 8.05331C9.12685 8.40665 8.56018 8.57998 8.00018 8.57998Z" fill="#45445F"/>
</svg>
