<svg width="20" height="20" viewBox="0 0 20 20" fill="none" xmlns="http://www.w3.org/2000/svg">
<path d="M14.167 17.7087H5.83366C2.79199 17.7087 1.04199 15.9587 1.04199 12.917V7.08366C1.04199 4.04199 2.79199 2.29199 5.83366 2.29199H10.0003C10.342 2.29199 10.6253 2.57533 10.6253 2.91699C10.6253 3.25866 10.342 3.54199 10.0003 3.54199H5.83366C3.45033 3.54199 2.29199 4.70033 2.29199 7.08366V12.917C2.29199 15.3003 3.45033 16.4587 5.83366 16.4587H14.167C16.5503 16.4587 17.7087 15.3003 17.7087 12.917V9.58366C17.7087 9.24199 17.992 8.95866 18.3337 8.95866C18.6753 8.95866 18.9587 9.24199 18.9587 9.58366V12.917C18.9587 15.9587 17.2087 17.7087 14.167 17.7087Z" fill="white"/>
<path d="M9.99998 10.7253C9.29998 10.7253 8.59165 10.5086 8.04998 10.067L5.44164 7.98364C5.17498 7.76697 5.12498 7.3753 5.34165 7.10864C5.55831 6.84197 5.94997 6.79197 6.21664 7.00864L8.82497 9.09197C9.45831 9.60031 10.5333 9.60031 11.1666 9.09197C11.4333 8.87531 11.825 8.91697 12.0417 9.19197C12.2583 9.45864 12.2166 9.85864 11.9416 10.067C11.4083 10.5086 10.7 10.7253 9.99998 10.7253Z" fill="white"/>
<path d="M13.9505 8.12487C13.6089 8.12487 13.3756 8.00819 13.2256 7.89986C12.9506 7.69986 12.5255 7.19987 12.7755 6.09987L12.8172 5.92487C12.8339 5.8582 12.7839 5.69986 12.7422 5.64986L12.4506 5.35819C11.9589 4.85819 11.7672 4.27487 11.9339 3.74987C12.1006 3.2332 12.5922 2.86653 13.2839 2.74987L13.6006 2.69987C13.6589 2.6832 13.7756 2.59987 13.8089 2.54153L14.0422 2.06653C14.3672 1.40819 14.8672 1.0332 15.4172 1.0332C15.9672 1.0332 16.4672 1.40819 16.7922 2.06653L17.0255 2.54153C17.0505 2.59153 17.1755 2.6832 17.2339 2.69987L17.5506 2.74987C18.2422 2.86653 18.7339 3.2332 18.9005 3.74987C19.0672 4.26653 18.8839 4.84986 18.3839 5.35819L18.0922 5.64986C18.0505 5.69986 18.0006 5.8582 18.0172 5.92487L18.0589 6.09987C18.3089 7.19987 17.8839 7.69986 17.6089 7.89986C17.3339 8.09986 16.7339 8.34154 15.7755 7.76654L15.5672 7.64153C15.5089 7.6082 15.3422 7.6082 15.2839 7.64153L15.0672 7.76654C14.6172 8.0332 14.2422 8.12487 13.9505 8.12487ZM15.4089 2.29153C15.4005 2.29987 15.2839 2.38319 15.1672 2.62486L14.9339 3.09987C14.7339 3.5082 14.2589 3.8582 13.8172 3.9332L13.5006 3.9832C13.2339 4.02486 13.1422 4.11654 13.1339 4.1332C13.1339 4.14987 13.1589 4.28319 13.3505 4.47486L13.6422 4.76653C13.9839 5.11653 14.1589 5.71653 14.0505 6.19153L14.0089 6.36653C13.9422 6.66653 13.9672 6.82486 13.9839 6.88319C14.0006 6.86653 14.1506 6.84987 14.4256 6.6832L14.6422 6.55819C15.1006 6.28319 15.7589 6.28319 16.2172 6.55819L16.4255 6.6832C16.7005 6.84987 16.8422 6.86654 16.8922 6.86654C16.8839 6.84154 16.9172 6.69153 16.8422 6.36653L16.8006 6.19153C16.6922 5.70819 16.8672 5.11653 17.2089 4.76653L17.5006 4.47486C17.6922 4.28319 17.7172 4.14986 17.7172 4.12486C17.7089 4.1082 17.6172 4.02487 17.3506 3.97487L17.0339 3.92487C16.5839 3.84987 16.1172 3.49987 15.9172 3.09154L15.6839 2.62486C15.5506 2.37486 15.4422 2.29987 15.4089 2.29153Z" fill="white"/>
</svg>
