<svg width="1em" height="1em" viewBox="0 0 14 14" fill="none" xmlns="http://www.w3.org/2000/svg">
<path d="M13.5338 12.8606L11.4266 10.8141C12.4802 9.69784 13.1 8.20947 13.1 6.59706C13.162 3.12419 10.2491 0.333496 6.7165 0.333496C3.18389 0.333496 0.333008 3.12419 0.333008 6.59706C0.333008 10.0699 3.18389 12.8606 6.7165 12.8606C8.26589 12.8606 9.62935 12.3645 10.7449 11.4963L12.8521 13.5428C12.9141 13.6048 13.038 13.6668 13.162 13.6668C13.2859 13.6668 13.4099 13.6048 13.4718 13.5428C13.7197 13.3568 13.7197 13.0467 13.5338 12.8606ZM1.26264 6.59706C1.26264 3.68233 3.74167 1.26373 6.7165 1.26373C9.69132 1.26373 12.1703 3.68233 12.1703 6.59706C12.1703 9.51179 9.69132 11.9304 6.7165 11.9304C3.74167 11.9304 1.26264 9.51179 1.26264 6.59706Z" fill="currentColor"/>
</svg>
