<svg width="1em" height="1em" viewBox="0 0 16 13" fill="none" xmlns="http://www.w3.org/2000/svg">
<path fill-rule="evenodd" clip-rule="evenodd" d="M8.25714 0.0905321C8.45672 -0.00125976 8.69147 0.0315275 8.85826 0.174489L15.7489 6.08074C15.8736 6.1876 15.9453 6.34361 15.9453 6.50782C15.9453 6.67203 15.8736 6.82804 15.7489 6.9349L8.85826 12.8412C8.69147 12.9841 8.45672 13.0169 8.25714 12.9251C8.05757 12.8333 7.92969 12.6337 7.92969 12.4141V9.04944C5.28422 9.14913 2.77297 9.9941 1.09577 12.7097C0.963611 12.9236 0.705484 13.0239 0.463554 12.9552C0.221625 12.8865 0.0546875 12.6656 0.0546875 12.4141C0.0546875 9.08319 1.14319 6.93908 2.81521 5.64816C4.30034 4.50152 6.16873 4.0891 7.92969 4.01994V0.601571C7.92969 0.381898 8.05757 0.182324 8.25714 0.0905321ZM9.05469 1.82457V4.57155C9.05469 4.88222 8.80285 5.13405 8.49219 5.13405C6.68839 5.13405 4.86527 5.48665 3.50272 6.53864C2.45828 7.34503 1.6262 8.6083 1.31349 10.5889C3.327 8.48551 5.9637 7.91407 8.49219 7.91407C8.80285 7.91407 9.05469 8.16591 9.05469 8.47657V11.1911L14.5185 6.50782L9.05469 1.82457Z" fill="currentColor"/>
</svg>
