<svg width="1em" height="1em" viewBox="0 0 28 24" fill="none" xmlns="http://www.w3.org/2000/svg">
<path fill-rule="evenodd" clip-rule="evenodd" d="M16.9501 6.34988C16.9501 9.8749 14.0656 12.6998 10.4661 12.6998C6.86792 12.6998 3.98207 9.8749 3.98207 6.34988C3.98207 2.82487 6.86792 0 10.4661 0C14.0656 0 16.9501 2.82487 16.9501 6.34988ZM0.666992 19.8898C0.666992 16.6267 5.18103 15.8103 10.4661 15.8103C15.7799 15.8103 20.2652 16.6548 20.2652 19.9205C20.2652 23.1836 15.7512 24 10.4661 24C5.15233 24 0.666992 23.1555 0.666992 19.8898ZM19.5649 6.465C19.5649 8.26009 19.0143 9.93507 18.0489 11.3264C17.9484 11.4695 18.0372 11.6624 18.212 11.6931C18.4546 11.7327 18.7038 11.757 18.9582 11.7621C21.4892 11.8273 23.7606 10.2315 24.3881 7.82824C25.3183 4.26234 22.589 1.06057 19.1122 1.06057C18.7351 1.06057 18.3738 1.0989 18.0215 1.16917C17.9732 1.17939 17.921 1.20239 17.895 1.24327C17.861 1.29566 17.8858 1.36337 17.9197 1.40809C18.9648 2.84288 19.5649 4.58942 19.5649 6.465ZM23.7567 14.2697C25.4579 14.5955 26.576 15.2586 27.0391 16.2258C27.4318 17.0179 27.4318 17.9378 27.0391 18.73C26.3307 20.2274 24.045 20.709 23.1565 20.833C22.9726 20.8585 22.8252 20.7052 22.8447 20.5238C23.2988 16.374 19.6888 14.4064 18.7547 13.9542C18.7156 13.9324 18.7064 13.9018 18.7104 13.8813C18.713 13.8686 18.7299 13.8481 18.7599 13.8443C20.7808 13.8059 22.9543 14.0781 23.7567 14.2697Z" fill="currentColor"/>
</svg>
