<svg width="20" height="20" viewBox="0 0 20 20" fill="none" xmlns="http://www.w3.org/2000/svg">
<path d="M9.99967 10.6253C7.35801 10.6253 5.20801 8.47533 5.20801 5.83366C5.20801 3.19199 7.35801 1.04199 9.99967 1.04199C12.6413 1.04199 14.7913 3.19199 14.7913 5.83366C14.7913 8.47533 12.6413 10.6253 9.99967 10.6253ZM9.99967 2.29199C8.04967 2.29199 6.45801 3.88366 6.45801 5.83366C6.45801 7.78366 8.04967 9.37533 9.99967 9.37533C11.9497 9.37533 13.5413 7.78366 13.5413 5.83366C13.5413 3.88366 11.9497 2.29199 9.99967 2.29199Z" fill="white"/>
<path d="M2.8418 18.9583C2.50013 18.9583 2.2168 18.675 2.2168 18.3333C2.2168 14.775 5.70846 11.875 10.0001 11.875C10.8418 11.875 11.6668 11.9834 12.4668 12.2084C12.8001 12.3 12.9918 12.6417 12.9001 12.975C12.8085 13.3083 12.4668 13.5 12.1335 13.4084C11.4501 13.2167 10.7335 13.125 10.0001 13.125C6.40013 13.125 3.4668 15.4583 3.4668 18.3333C3.4668 18.675 3.18346 18.9583 2.8418 18.9583Z" fill="white"/>
<path d="M15.0003 18.9587C13.617 18.9587 12.317 18.2253 11.617 17.0337C11.242 16.4337 11.042 15.7253 11.042 15.0003C11.042 13.7837 11.5837 12.6586 12.5253 11.9086C13.2253 11.3503 14.1087 11.042 15.0003 11.042C17.1837 11.042 18.9587 12.817 18.9587 15.0003C18.9587 15.7253 18.7587 16.4337 18.3837 17.042C18.1753 17.392 17.9086 17.7087 17.592 17.9753C16.9003 18.6087 15.9753 18.9587 15.0003 18.9587ZM15.0003 12.292C14.3837 12.292 13.8003 12.5003 13.3087 12.892C12.667 13.4003 12.292 14.1753 12.292 15.0003C12.292 15.492 12.4253 15.9753 12.6837 16.392C13.167 17.2086 14.0587 17.7087 15.0003 17.7087C15.6587 17.7087 16.292 17.467 16.7753 17.0337C16.992 16.8503 17.1753 16.6337 17.3087 16.4003C17.5753 15.9753 17.7087 15.492 17.7087 15.0003C17.7087 13.5087 16.492 12.292 15.0003 12.292Z" fill="white"/>
<path d="M14.5251 16.4496C14.3667 16.4496 14.2084 16.3913 14.0834 16.2663L13.2584 15.4413C13.0167 15.1997 13.0167 14.7996 13.2584 14.558C13.5001 14.3163 13.9001 14.3163 14.1417 14.558L14.5417 14.958L15.8751 13.7246C16.1251 13.4913 16.525 13.508 16.7584 13.758C16.9917 14.008 16.9751 14.408 16.7251 14.6413L14.9501 16.283C14.8251 16.3913 14.6751 16.4496 14.5251 16.4496Z" fill="white"/>
</svg>
