<svg width="20" height="20" viewBox="0 0 20 20" fill="none" xmlns="http://www.w3.org/2000/svg">
<path d="M5.97451 18.9587C3.99117 18.9587 2.36621 17.517 2.36621 15.742V14.042C2.36621 13.7003 2.64954 13.417 2.99121 13.417C3.33288 13.417 3.61621 13.7003 3.61621 14.042C3.61621 15.0837 4.62451 15.867 5.97451 15.867C7.32451 15.867 8.33286 15.0837 8.33286 14.042C8.33286 13.7003 8.61619 13.417 8.95786 13.417C9.29952 13.417 9.58286 13.7003 9.58286 14.042V15.742C9.58286 17.517 7.96617 18.9587 5.97451 18.9587ZM3.83283 16.5587C4.1995 17.242 5.02451 17.7087 5.97451 17.7087C6.92451 17.7087 7.74951 17.2337 8.11618 16.5587C7.52451 16.917 6.79117 17.1253 5.97451 17.1253C5.15784 17.1253 4.4245 16.917 3.83283 16.5587Z" fill="white"/>
<path d="M5.97451 14.8329C4.60784 14.8329 3.38287 14.2079 2.77454 13.2162C2.50787 12.7829 2.36621 12.2745 2.36621 11.7579C2.36621 10.8829 2.74953 10.0662 3.44953 9.45786C4.79953 8.27453 7.12452 8.27457 8.48285 9.44957C9.18285 10.0662 9.57451 10.8829 9.57451 11.7579C9.57451 12.2745 9.43286 12.7829 9.16619 13.2162C8.56619 14.2079 7.34118 14.8329 5.97451 14.8329ZM5.97451 9.79121C5.32451 9.79121 4.72453 10.0079 4.27453 10.3995C3.84953 10.7662 3.61621 11.2495 3.61621 11.7579C3.61621 12.0495 3.69118 12.3162 3.84118 12.5662C4.22451 13.1996 5.04117 13.5912 5.97451 13.5912C6.90784 13.5912 7.7245 13.1996 8.0995 12.5746C8.2495 12.3329 8.32451 12.0579 8.32451 11.7662C8.32451 11.2579 8.0912 10.7745 7.6662 10.3995C7.22453 10.0079 6.62451 9.79121 5.97451 9.79121Z" fill="white"/>
<path d="M5.97451 17.1253C3.91617 17.1253 2.36621 15.8003 2.36621 14.0503V11.7586C2.36621 9.98365 3.98284 8.54199 5.97451 8.54199C6.91617 8.54199 7.81619 8.86701 8.49119 9.45035C9.19119 10.067 9.58286 10.8836 9.58286 11.7586V14.0503C9.58286 15.8003 8.03284 17.1253 5.97451 17.1253ZM5.97451 9.79199C4.67451 9.79199 3.61621 10.6753 3.61621 11.7586V14.0503C3.61621 15.092 4.62451 15.8753 5.97451 15.8753C7.32451 15.8753 8.33286 15.092 8.33286 14.0503V11.7586C8.33286 11.2503 8.09954 10.767 7.67454 10.392C7.22454 10.0086 6.62451 9.79199 5.97451 9.79199Z" fill="white"/>
<path d="M15.8662 12.3336C14.6079 12.3336 13.5413 11.4003 13.4413 10.2003C13.3746 9.50864 13.6246 8.83366 14.1246 8.34199C14.5413 7.90866 15.1329 7.66699 15.7579 7.66699H17.4996C18.3246 7.69199 18.9579 8.34196 18.9579 9.14196V10.8587C18.9579 11.6587 18.3246 12.3086 17.5246 12.3336H15.8662ZM17.4746 8.91699H15.7663C15.4746 8.91699 15.2079 9.02532 15.0163 9.22532C14.7746 9.45865 14.6579 9.7753 14.6913 10.092C14.7329 10.642 15.2662 11.0836 15.8662 11.0836H17.4996C17.6079 11.0836 17.7079 10.9837 17.7079 10.8587V9.14196C17.7079 9.01696 17.6079 8.92533 17.4746 8.91699Z" fill="white"/>
<path d="M13.3332 17.7087H11.2499C10.9082 17.7087 10.6249 17.4253 10.6249 17.0837C10.6249 16.742 10.9082 16.4587 11.2499 16.4587H13.3332C15.4832 16.4587 16.8749 15.067 16.8749 12.917V12.3336H15.8665C14.6082 12.3336 13.5415 11.4003 13.4415 10.2003C13.3749 9.50865 13.6249 8.83367 14.1249 8.342C14.5416 7.90867 15.1332 7.667 15.7582 7.667H16.8665V7.08366C16.8665 5.13366 15.7249 3.79197 13.8749 3.57531C13.6749 3.54197 13.4999 3.54199 13.3249 3.54199H5.82487C5.62487 3.54199 5.43319 3.55865 5.24153 3.58365C3.40819 3.81698 2.2832 5.15033 2.2832 7.08366V8.75033C2.2832 9.09199 1.99987 9.37533 1.6582 9.37533C1.31654 9.37533 1.0332 9.09199 1.0332 8.75033V7.08366C1.0332 4.51699 2.61657 2.65866 5.0749 2.35033C5.2999 2.317 5.5582 2.29199 5.82487 2.29199H13.3249C13.5249 2.29199 13.7832 2.30032 14.0499 2.34199C16.5082 2.62532 18.1165 4.49199 18.1165 7.08366V8.292C18.1165 8.63367 17.8332 8.917 17.4915 8.917H15.7582C15.4665 8.917 15.1999 9.02533 15.0082 9.22533C14.7666 9.45867 14.6499 9.77531 14.6832 10.092C14.7249 10.642 15.2582 11.0836 15.8582 11.0836H17.4999C17.8415 11.0836 18.1249 11.367 18.1249 11.7086V12.917C18.1249 15.7837 16.1999 17.7087 13.3332 17.7087Z" fill="white"/>
</svg>
