<svg width="256" height="256" viewBox="0 0 256 256" fill="none" xmlns="http://www.w3.org/2000/svg">
<path d="M155.696 22.9879L149.884 31.6247L128.003 64.1669L106.121 31.6247L100.31 22.9879C101.037 22.613 101.863 22.4001 102.74 22.4001H153.268C154.142 22.3969 154.968 22.613 155.696 22.9879Z" fill="#FFB610"/>
<path d="M99.9127 105.934L78.0315 138.476L72.2196 147.113C71.4379 146.715 70.7706 146.118 70.2812 145.403L45.6991 108.851C45.1271 108.018 44.7998 107.017 44.7998 105.934H99.9127Z" fill="#FFB610"/>
<path d="M99.9123 105.934L128.003 64.1669H71.8252L99.9123 105.934Z" fill="#FFB610"/>
<path d="M183.122 64.1637C183.122 65.1075 182.868 65.9908 182.43 66.7566C182.414 66.7789 182.401 66.8011 182.385 66.8297L182.096 67.2651C182.074 67.2937 182.052 67.3159 182.036 67.3382L156.986 104.596C156.97 104.625 156.958 104.647 156.942 104.663C156.748 104.926 156.437 105.098 156.087 105.098C155.744 105.098 155.442 104.936 155.255 104.685L155.166 104.551L128 64.1637H183.122Z" fill="#FFB610"/>
<path d="M100.304 229.817L106.116 221.18L127.997 188.638L149.878 221.18L155.69 229.817C154.962 230.192 154.136 230.405 153.259 230.405H102.735C101.858 230.405 101.031 230.192 100.304 229.817Z" fill="#FFB610"/>
<path d="M156.087 146.868L177.968 114.326L183.78 105.689C184.562 106.086 185.229 106.684 185.718 107.399L210.301 143.951C210.872 144.783 211.2 145.784 211.2 146.868H156.087V146.868Z" fill="#FFB610"/>
<path d="M156.086 146.868L127.996 188.638H184.174L156.086 146.868Z" fill="#FFB610"/>
<path d="M72.877 188.638C72.877 187.694 73.1312 186.811 73.5697 186.045C73.5856 186.023 73.5983 186.001 73.6142 185.972L73.9033 185.537C73.9256 185.508 73.9478 185.486 73.9637 185.464L99.013 148.206C99.0289 148.177 99.0416 148.155 99.0575 148.139C99.2513 147.875 99.5627 147.704 99.9123 147.704C100.255 147.704 100.557 147.866 100.745 148.117L100.834 148.25L127.999 188.638H72.877Z" fill="#FFB610"/>
<path d="M128.003 64.1669H71.8252L98.368 24.6975C98.8573 23.9825 99.5278 23.3851 100.306 22.9879L106.118 31.6247L128.003 64.1669Z" fill="#FDCB36"/>
<path d="M183.122 64.1669H128.003L149.884 31.6247L155.696 22.9879C156.478 23.3851 157.145 23.9825 157.634 24.6975L182.156 61.1608L182.318 61.4055C182.833 62.2063 183.122 63.15 183.122 64.1669Z" fill="#FDCB36"/>
<path d="M127.091 146.655C127.091 147.23 126.615 147.701 126.036 147.701H74.6477C73.7707 147.701 72.9445 147.488 72.2168 147.113L78.0287 138.476L99.9099 105.934L126.869 146.023L126.958 146.156C127.047 146.302 127.091 146.471 127.091 146.655Z" fill="#FDCB36"/>
<path d="M99.9127 105.934H44.7998C44.7998 104.888 45.1112 103.906 45.6482 103.09C45.6768 103.045 45.7086 103.001 45.7372 102.956L71.8256 64.1637L99.9127 105.934Z" fill="#FDCB36"/>
<path d="M127.996 188.638H184.174L157.631 228.107C157.141 228.822 156.471 229.42 155.692 229.817L149.88 221.18L127.996 188.638Z" fill="#FDCB36"/>
<path d="M72.877 188.638H127.996L106.115 221.18L100.303 229.817C99.5214 229.42 98.8541 228.822 98.3648 228.107L73.843 191.644L73.6809 191.399C73.1661 190.595 72.877 189.655 72.877 188.638Z" fill="#FDCB36"/>
<path d="M128.908 106.147C128.908 105.571 129.385 105.101 129.963 105.101H181.352C182.229 105.101 183.055 105.314 183.783 105.689L177.971 114.326L156.09 146.868L129.131 106.779L129.042 106.646C128.953 106.499 128.908 106.331 128.908 106.147Z" fill="#FDCB36"/>
<path d="M156.087 146.868H211.2C211.2 147.913 210.888 148.895 210.351 149.712C210.323 149.756 210.291 149.801 210.262 149.845L184.174 188.638L156.087 146.868Z" fill="#FDCB36"/>
</svg>
